<?xml version="1.0" standalone="no"?>
<!DOCTYPE svg PUBLIC "-//W3C//DTD SVG 1.1//EN" "http://www.w3.org/Graphics/SVG/1.1/DTD/svg11.dtd" >
<svg>
<metadata>
Created by FontForge 20090622 at Mon Feb 27 14:49:53 2017
 By deploy user
Copyright &#194;&#169; 2014 Commercial Type.
</metadata>
<defs>
<font id="AustinText-Roman" horiz-adv-x="150" >
  <font-face 
    font-family="Austin Text Roman"
    font-weight="400"
    font-stretch="normal"
    units-per-em="1000"
    panose-1="2 0 0 0 0 0 0 0 0 0"
    ascent="800"
    descent="-200"
    x-height="424"
    cap-height="658"
    bbox="-100 -267 967 689"
    underline-thickness="37"
    underline-position="-95"
    unicode-range="U+000D-U+201D"
  />
<missing-glyph 
 />
    <glyph glyph-name=".notdef" 
 />
    <glyph glyph-name=".null" horiz-adv-x="0" 
 />
    <glyph glyph-name="nonmarkingreturn" unicode="&#xd;" 
 />
    <glyph glyph-name="NULL" horiz-adv-x="0" 
 />
    <glyph glyph-name="NULL" horiz-adv-x="0" 
 />
    <glyph glyph-name="space" unicode=" " 
 />
    <glyph glyph-name="comma" unicode="," horiz-adv-x="226" 
d="M166 37q0 -30 -10 -56t-27.5 -47t-40.5 -36.5t-50 -25.5l-8 19q44 20 64 45t20 45q0 16 -15 21q-19 7 -34 17.5t-15 36.5q0 23 17 36.5t37 13.5q26 0 44 -17.5t18 -51.5z" />
    <glyph glyph-name="hyphen" unicode="-" horiz-adv-x="333" 
d="M60 233v50h213v-50h-213z" />
    <glyph glyph-name="period" unicode="." horiz-adv-x="212" 
d="M55 38q0 21 15 36t36 15t36 -15t15 -36t-15 -36t-36 -15t-36 15t-15 36z" />
    <glyph glyph-name="zero" unicode="0" horiz-adv-x="525" 
d="M263 24q36 0 61 18t41 50t23.5 76.5t7.5 97.5t-7.5 97.5t-23.5 76.5t-41 50t-61 18q-35 0 -60.5 -18t-42 -50t-24 -76.5t-7.5 -97.5t7.5 -97.5t24 -76.5t41.5 -50t61 -18zM35 266q0 68 19.5 119.5t51 86.5t72.5 52.5t85 17.5q43 0 84 -17.5t73 -52.5t51 -86.5t19 -119.5
t-19 -119.5t-51 -86.5t-73 -52.5t-84 -17.5q-44 0 -85 17.5t-72.5 52.5t-51 86.5t-19.5 119.5z" />
    <glyph glyph-name="one" unicode="1" horiz-adv-x="287" 
d="M30 0v21q10 2 20.5 4.5t15.5 4.5q13 6 19 13.5t10 20.5q3 11 4 20.5t1 25.5v286q0 14 -0.5 27t-2.5 25q-3 14 -8.5 21.5t-17.5 12.5q-10 4 -22.5 5t-28.5 2v21l34 5l29.5 5.5t26 5.5t26.5 6q12 3 25 7t17 4q11 0 11 -10q0 -6 -0.5 -24.5t-0.5 -41t-0.5 -43.5t-0.5 -31
v-283q0 -16 1 -25.5t4 -20.5q4 -13 10 -20.5t19 -13.5q5 -2 15.5 -4.5t20.5 -4.5v-21h-227z" />
    <glyph glyph-name="two" unicode="2" horiz-adv-x="476" 
d="M440 150q-8 -30 -19 -67.5t-22 -82.5h-366v28l77 55q32 22 70.5 53t72.5 70.5t56.5 88.5t22.5 108q0 58 -24 80.5t-69 22.5q-29 0 -55 -13t-46.5 -37t-32.5 -57.5t-12 -73.5q0 -35 15.5 -48t33.5 -13t31.5 8t24 20.5t19 29t15.5 34.5l21 -8q-8 -26 -20 -48.5t-29 -39.5
t-39 -27t-48 -10q-45 0 -70.5 26.5t-25.5 70.5q0 45 20.5 85.5t54 70.5t77.5 48t92 18q80 0 121.5 -37t41.5 -97q0 -43 -15 -79t-37.5 -66t-48.5 -53l-47 -41q-25 -20 -58 -44t-70 -47v-5h142q21 0 34.5 2t23 6t16.5 9.5t15 13.5q13 13 19 24l13 22h25z" />
    <glyph glyph-name="three" unicode="3" horiz-adv-x="459" 
d="M419 181q0 -37 -15.5 -71.5t-45.5 -61t-74 -42.5t-101 -16q-38 0 -69 9t-53.5 24t-35 35t-12.5 42q0 27 14 41t35 14q23 0 35 -14q13 -15 13 -38q0 -8 -2.5 -18.5t-2.5 -18.5q0 -21 21.5 -31.5t56.5 -10.5q76 0 111.5 38t35.5 118q0 44 -19.5 64.5t-46.5 20.5
q-11 0 -24.5 -3.5t-27.5 -12.5l-38 -24l-15 23l72 47q21 13 37 26t26.5 28t16 34.5t5.5 46.5q0 42 -21 61t-56 19q-27 0 -50 -9.5t-39 -25.5t-25 -37t-9 -44q0 -52 45 -52q22 0 38.5 14t29.5 38l18 -10q-16 -32 -45 -56t-72 -24q-33 0 -52 22.5t-19 57.5q0 32 15.5 60.5
t42.5 50.5t62 34.5t74 12.5q30 0 57 -6t47.5 -18.5t32.5 -33t12 -50.5q0 -50 -32.5 -80t-87.5 -56v-3q68 5 102.5 -26.5t34.5 -87.5z" />
    <glyph glyph-name="four" unicode="4" horiz-adv-x="484" 
d="M345 218q32 0 45.5 6t24.5 17t16 23t8 28h20v-182h-20q-3 16 -8 28t-16 23t-24.5 17t-45.5 6h-20v-74q0 -16 1 -25.5t4 -20.5q4 -13 10 -20.5t19 -13.5q5 -2 15.5 -4.5t20.5 -4.5v-21h-227v21q10 2 20.5 4.5t15.5 4.5q13 6 19 13.5t10 20.5q3 11 4 20.5t1 25.5v74h-228
v27l290 332h24q2 0 2 -3q0 -11 -0.5 -27t-0.5 -36v-259h20zM61 218h177v199h-6z" />
    <glyph glyph-name="five" unicode="5" horiz-adv-x="450" 
d="M172 22q72 0 109.5 48t37.5 123q0 63 -23 89t-65 26q-41 0 -72 -22.5t-46 -63.5l-35 7l67 303h46l24 -9q10 -3 19.5 -5t21.5 -2.5t30 -0.5q20 0 38.5 6.5t34 16.5t26 22t14.5 24l22 -5q-10 -41 -30 -67t-45 -41.5t-53 -21.5t-53 -6q-19 0 -37.5 2t-41.5 5l-33 -153l3 -1
q19 21 50 35t74 14q70 0 112.5 -35.5t42.5 -115.5q0 -41 -18 -78t-50 -65t-76 -44.5t-96 -16.5q-78 0 -117 30.5t-39 74.5q0 27 15 42t35 15q26 0 38 -17q9 -14 9 -35q0 -8 -1.5 -18.5t-1.5 -18.5q0 -21 17.5 -31t46.5 -10z" />
    <glyph glyph-name="six" unicode="6" horiz-adv-x="461" 
d="M446 451q0 -58 -47 -58q-21 0 -32 10q-15 12 -15 34q0 9 4 21t4 17q0 20 -13.5 28.5t-50.5 8.5q-35 0 -63.5 -18.5t-50 -49t-35 -69t-18.5 -77.5h5q18 23 49 36.5t73 13.5q37 0 69.5 -12t56.5 -34.5t38 -55t14 -74.5q0 -39 -15 -73t-41.5 -58.5t-63 -39t-78.5 -14.5
q-48 0 -86 18.5t-64 51t-40 75.5t-14 92q0 77 25 137t63.5 101.5t85 63t90.5 21.5q40 0 68.5 -7.5t46.5 -20.5t26.5 -30.5t8.5 -37.5zM236 309q-19 0 -39 -6t-36 -21.5t-26 -43.5t-10 -71q0 -39 8.5 -66.5t23.5 -44.5t35 -24.5t43 -7.5q50 0 78 32.5t28 110.5t-29.5 110
t-75.5 32z" />
    <glyph glyph-name="seven" unicode="7" horiz-adv-x="434" 
d="M419 504q-14 -21 -32 -52t-35 -65.5t-32 -69.5t-24 -65q-11 -37 -16.5 -64.5t-7.5 -50t-3 -43.5l-2 -42q-3 -41 -18 -53t-34 -12q-23 0 -36 14.5t-13 39.5q0 19 8 45.5t19 54.5t24 56l23 48q29 60 55 107l55 97v2h-216q-12 0 -22.5 -2t-21.5 -11q-13 -10 -18.5 -21.5
t-9.5 -23.5h-26l41 174h17q5 -13 17.5 -24t40.5 -11h267v-28z" />
    <glyph glyph-name="eight" unicode="8" horiz-adv-x="448" 
d="M394 421q0 -48 -28 -79.5t-70 -52.5q22 -9 44 -21t39.5 -28t28 -37.5t10.5 -50.5q0 -74 -52.5 -118t-143.5 -44q-42 0 -77.5 8t-61.5 24.5t-40.5 41t-14.5 58.5q0 22 10 42t26.5 36.5t37.5 30t44 21.5q-51 24 -77 57t-26 84q0 33 14 60t38.5 47t58 31t71.5 11q36 0 67 -8
t53.5 -23.5t35.5 -38t13 -51.5zM342 118q0 25 -10 40.5t-29.5 27.5t-48.5 23l-68 26q-42 -17 -70 -42t-28 -69q0 -30 12 -49.5t31 -30.5t43 -15.5t48 -4.5q25 0 47 5t38 16t25.5 29t9.5 44zM117 425q0 -26 8.5 -43t26 -29.5t44 -24t62.5 -24.5q32 15 54.5 41.5t22.5 69.5
q0 52 -30.5 72.5t-79.5 20.5q-47 0 -77.5 -20.5t-30.5 -62.5z" />
    <glyph glyph-name="nine" unicode="9" horiz-adv-x="458" 
d="M15 86q0 24 14.5 38t35.5 14q27 0 40 -21q6 -11 6 -26q0 -11 -0.5 -20t-0.5 -18t5.5 -15t14.5 -9.5t19.5 -5t20.5 -1.5q46 0 75 18.5t47 49t26.5 69t13.5 77.5h-5q-18 -23 -49.5 -36.5t-73.5 -13.5q-40 0 -73.5 12t-57.5 34.5t-37 55t-13 74.5q0 39 15 73t41 58.5
t62.5 39t78.5 14.5q48 0 86.5 -19t65 -51t40.5 -75t14 -92q0 -77 -21 -137t-56 -101.5t-81.5 -63t-97.5 -21.5q-42 0 -71.5 8t-48 21.5t-27 31.5t-8.5 38zM216 225q19 0 39.5 6t37 21.5t27.5 43t11 71.5q0 39 -8.5 66.5t-23.5 44.5t-35 24.5t-43 7.5q-50 0 -78 -36t-28 -107
q0 -78 27.5 -110t73.5 -32z" />
    <glyph glyph-name="A" unicode="A" horiz-adv-x="642" 
d="M389 227h-207l-25 -71q-8 -22 -12 -39.5t-4 -34.5q0 -20 8.5 -33t22.5 -19q8 -4 21.5 -6t27.5 -3v-21h-221v21q14 2 24.5 4.5t20.5 8.5q20 12 34 38q15 27 38 89l187 501h35l179 -504q9 -26 18.5 -46t19.5 -34q12 -17 24 -27.5t26 -17.5q16 -8 36 -12v-21h-288v21
q19 2 28 5l17 4q16 5 26.5 13.5t10.5 31.5t-9 47l-17 47zM195 262h181l-87 244h-7z" />
    <glyph glyph-name="B" unicode="B" horiz-adv-x="622" 
d="M322 658q41 0 81.5 -6.5t72.5 -23.5t52 -45.5t20 -73.5q0 -52 -24 -80t-59 -48q-14 -8 -29 -13.5t-43 -10.5v-3q38 -4 73 -15.5t62 -31.5t43 -50t16 -72t-17.5 -76t-47 -58.5t-69 -37.5t-83.5 -13h-341v21q22 1 36 6q16 5 27 13.5t19 24.5q9 18 11.5 39t2.5 65v321
q0 22 -0.5 37.5t-2 27t-4.5 20.5t-7 18q-8 16 -19 24.5t-27 13.5q-14 4 -36 6v21h293zM223 332v-186q0 -35 3.5 -57t16.5 -35q11 -11 30 -15t45 -4h25q35 0 63.5 9t47.5 29q30 33 30 112q0 32 -8 63t-29 53q-18 18 -50.5 24.5t-70.5 6.5h-103zM223 368h99q78 0 105 36
q16 21 22 50.5t6 54.5q0 33 -9.5 55t-27 35t-41.5 18.5t-53 5.5h-78q-8 0 -13 -0.5t-7 -4.5q-3 -4 -3 -16v-234z" />
    <glyph glyph-name="C" unicode="C" horiz-adv-x="645" 
d="M362 635q-24 0 -47.5 -5.5t-45.5 -18.5t-43 -34t-37.5 -55t-26.5 -81.5t-10 -112.5q0 -61 8 -104.5t21.5 -73.5t32.5 -50t40 -33q27 -17 55.5 -24t72.5 -7q67 0 122.5 31t88.5 96l27 -18q-35 -72 -97.5 -115.5t-168.5 -43.5q-69 0 -127 25.5t-100 70.5t-65.5 108
t-23.5 138t27.5 138t73 108t104 70.5t119.5 25.5q38 0 67 -5t51 -13t37 -17.5t26 -19.5h4l32 44h21v-226h-21q-14 50 -34.5 84.5t-38.5 54.5q-13 14 -26 25.5t-29 20t-37.5 13t-51.5 4.5z" />
    <glyph glyph-name="D" unicode="D" horiz-adv-x="702" 
d="M320 658q60 0 104 -11t75 -28q34 -19 64.5 -46.5t52.5 -63.5t35 -80.5t13 -98.5q0 -109 -44.5 -180.5t-114.5 -110.5q-32 -17 -72 -28t-83 -11h-321v21q22 1 36 6q16 5 27 13.5t19 24.5q9 18 11.5 39t2.5 65v320q0 44 -2.5 65t-11.5 39q-8 16 -19 24.5t-27 13.5
q-14 4 -36 6v21h291zM336 35q33 0 70.5 12t64.5 38q19 19 35 41.5t27.5 51.5t18 65.5t6.5 84.5q0 96 -25.5 156t-65.5 95q-14 12 -32.5 20.5t-38.5 14t-40.5 7.5t-39.5 2h-70q-8 0 -13 -0.5t-7 -4.5q-3 -4 -3 -20v-452q0 -35 3.5 -57t16.5 -35q11 -11 30 -15t45 -4h18z" />
    <glyph glyph-name="E" unicode="E" horiz-adv-x="604" 
d="M545 0h-516v21q22 1 36 6q16 5 27 13.5t19 24.5q9 18 11.5 39t2.5 65v320q0 44 -2.5 65t-11.5 39q-8 16 -19 24.5t-27 13.5q-14 4 -36 6v21h489l29 -163h-23q-19 34 -37 54.5t-43 40.5q-14 11 -42.5 22t-70.5 11h-51q-14 0 -26 -2.5t-20 -12.5q-8 -11 -9.5 -24t-1.5 -31
v-195h57q33 0 53.5 5.5t34.5 19.5q20 18 25 37.5t8 42.5h21v-246h-21q-3 23 -9 44t-26 39q-14 14 -34 18.5t-52 4.5h-57v-177q0 -35 3.5 -57t16.5 -35q11 -11 30 -15t45 -4h22q52 0 81.5 14t51.5 31q18 14 31 26.5t23.5 24.5t19 25t17.5 29h20z" />
    <glyph glyph-name="F" unicode="F" horiz-adv-x="569" 
d="M325 0h-296v21q22 1 36 6q16 5 27 13.5t19 24.5q9 18 11.5 39t2.5 65v320q0 44 -2.5 65t-11.5 39q-8 16 -19 24.5t-27 13.5q-14 4 -36 6v21h490l30 -180h-23q-38 71 -88 110q-14 11 -39.5 23t-71.5 12h-47q-14 0 -26 -2.5t-20 -12.5q-8 -11 -9.5 -24t-1.5 -31v-191h34
q33 0 53.5 5.5t34.5 19.5q20 18 25 37.5t8 42.5h21v-246h-21q-3 23 -9 44t-26 39q-14 14 -34 18.5t-52 4.5h-34v-158q0 -44 2.5 -65t11.5 -39q8 -16 19 -24.5t27 -13.5q7 -2 19 -3.5t23 -2.5v-21z" />
    <glyph glyph-name="G" unicode="G" horiz-adv-x="708" 
d="M502 179q0 33 -2.5 48t-11.5 33q-8 16 -19 23t-27 12q-14 4 -36 6v20h292v-20q-23 -2 -36 -6q-16 -5 -27 -13.5t-19 -24.5q-9 -18 -11.5 -53.5t-2.5 -80.5v-89q-10 -6 -30 -13.5t-46 -13.5q-27 -6 -71.5 -13.5t-90.5 -7.5q-75 0 -135 25.5t-102.5 70.5t-65.5 108t-23 138
t27 138t72 108t102.5 70.5t118.5 25.5q39 0 69 -5t52.5 -13t37.5 -17.5t26 -19.5h4l32 44h21v-226h-21q-14 50 -34 84.5t-39 54.5q-13 14 -26 25.5t-29.5 20t-39 13t-54.5 4.5q-23 0 -45 -5t-45 -18q-19 -11 -39.5 -32t-37 -55.5t-27.5 -83t-11 -113.5q0 -63 7 -108.5
t20 -78t32 -54t43 -36.5q26 -16 52.5 -22.5t58.5 -6.5q55 0 81 8t39 19q3 3 6.5 8t5.5 14t3.5 23.5t1.5 37.5v47z" />
    <glyph glyph-name="H" unicode="H" horiz-adv-x="748" 
d="M317 0h-288v21q22 1 36 6q16 5 27 13.5t19 24.5q9 18 11.5 39t2.5 65v320q0 44 -2.5 65t-11.5 39q-8 16 -19 24.5t-27 13.5q-14 4 -36 6v21h288v-21q-20 -1 -34 -6q-16 -5 -27 -13.5t-19 -24.5q-9 -18 -11.5 -39t-2.5 -65v-137h302v137q0 44 -2.5 65t-11.5 39
q-8 16 -19 24.5t-27 13.5q-14 5 -34 6v21h288v-21q-23 -2 -36 -6q-16 -5 -27 -13.5t-19 -24.5q-9 -18 -11.5 -39t-2.5 -65v-320q0 -44 2.5 -65t11.5 -39q8 -16 19 -24.5t27 -13.5q13 -5 36 -6v-21h-288v21q20 1 34 6q16 5 27 13.5t19 24.5q9 18 11.5 39t2.5 65v148h-302
v-148q0 -44 2.5 -65t11.5 -39q8 -16 19 -24.5t27 -13.5q14 -5 34 -6v-21z" />
    <glyph glyph-name="I" unicode="I" horiz-adv-x="348" 
d="M223 169q0 -44 2.5 -65t11.5 -39q8 -16 19 -24.5t27 -13.5q13 -5 36 -6v-21h-290v21q22 1 36 6q16 5 27 13.5t19 24.5q9 18 11.5 39t2.5 65v320q0 44 -2.5 65t-11.5 39q-8 16 -19 24.5t-27 13.5q-14 4 -36 6v21h290v-21q-23 -2 -36 -6q-16 -5 -27 -13.5t-19 -24.5
q-9 -18 -11.5 -39t-2.5 -65v-320z" />
    <glyph glyph-name="J" unicode="J" horiz-adv-x="408" 
d="M203 489q0 44 -2.5 65t-11.5 39q-8 16 -19 24.5t-27 13.5q-14 4 -36 6v21h289v-21q-23 -2 -36 -6q-16 -5 -27 -13.5t-19 -24.5q-9 -18 -11.5 -39t-2.5 -65v-290q0 -34 -5.5 -60t-14 -46t-18.5 -34t-19 -24q-23 -23 -52.5 -36t-67.5 -13q-23 0 -47.5 6t-44.5 23
q-10 9 -18 24.5t-8 33.5q0 24 13.5 37.5t35.5 13.5q26 0 38 -18q9 -14 16 -38q4 -17 9 -27q11 -20 30 -20q15 0 26.5 4.5t19.5 22.5q5 11 7.5 25.5t3 30.5t0 31t-0.5 28v326z" />
    <glyph glyph-name="K" unicode="K" horiz-adv-x="656" 
d="M223 339l161 165l49 51q18 20 18 40q0 18 -8.5 24t-19.5 11q-8 3 -18 4.5t-20 2.5v21h243v-21q-16 -2 -38.5 -10.5t-40.5 -19.5l-23 -15q-11 -7 -23.5 -17.5t-27.5 -25.5l-34 -33l-120 -122v-7q52 -2 84.5 -14.5t55.5 -35.5q27 -28 47 -73t26 -101q3 -33 8.5 -53.5
t12.5 -34t15 -21t16 -13.5q11 -8 30 -13t30 -7v-21h-166q-8 8 -17 23.5t-16.5 36t-13 45t-7.5 49.5q-5 53 -13.5 85.5t-18.5 50.5q-15 28 -32 44.5t-52 16.5q-15 0 -30 -8.5t-27 -19.5q-7 -6 -15.5 -15t-14.5 -17v-122q0 -44 2.5 -65t11.5 -39q8 -16 19 -24.5t27 -13.5
q13 -4 38 -6v-21h-292v21q22 1 36 6q16 5 27 13.5t19 24.5q9 18 11.5 39t2.5 65v320q0 44 -2.5 65t-11.5 39q-8 16 -19 24.5t-27 13.5q-14 4 -36 6v21h292v-21q-25 -2 -38 -6q-16 -5 -27 -13.5t-19 -24.5q-9 -18 -11.5 -39t-2.5 -65v-150z" />
    <glyph glyph-name="L" unicode="L" horiz-adv-x="589" 
d="M29 21q22 1 36 6q16 5 27 13.5t19 24.5q9 18 11.5 39t2.5 65v320q0 44 -2.5 65t-11.5 39q-8 16 -19 24.5t-27 13.5q-14 4 -36 6v21h290v-21q-23 -2 -36 -6q-16 -5 -27 -13.5t-19 -24.5q-9 -18 -11.5 -39t-2.5 -65v-343q0 -35 3.5 -57t16.5 -35q11 -11 30 -15t45 -4h12
q52 0 81.5 14t51.5 31q35 29 52 57t34 65h20l-34 -202h-506v21z" />
    <glyph glyph-name="M" unicode="M" horiz-adv-x="876" 
d="M847 637q-23 -2 -36 -6q-16 -5 -27 -13.5t-19 -24.5q-9 -18 -11.5 -39t-2.5 -65v-320q0 -44 2.5 -65t11.5 -39q8 -16 19 -24.5t27 -13.5q13 -5 36 -6v-21h-294v21q11 1 22 2.5t18 3.5q16 5 27 13.5t19 24.5q9 18 11.5 39t2.5 65v401h-6l-211 -574h-40l-214 574h-7v-422
q0 -40 4.5 -58.5t13.5 -30.5q9 -13 18.5 -19.5t22.5 -10.5q10 -3 18.5 -4.5t22.5 -3.5v-21h-246v21q11 1 20.5 2.5t17.5 3.5q14 4 23.5 10t20.5 19t17 32.5t6 59.5v341q0 44 -2.5 65t-11.5 39q-8 16 -19 24.5t-27 13.5q-7 2 -20.5 3.5t-24.5 2.5v21h225l188 -512h6l191 512
h208v-21z" />
    <glyph glyph-name="N" unicode="N" horiz-adv-x="718" 
d="M570 -8l-393 557h-5v-401q0 -40 4.5 -58.5t13.5 -30.5q9 -13 18.5 -19.5t22.5 -10.5q10 -3 18.5 -4.5t22.5 -3.5v-21h-246v21q11 1 20.5 2.5t17.5 3.5q14 4 23.5 10t20.5 19t17 32.5t6 59.5v300q0 54 -5.5 83t-14.5 47q-16 35 -59 52q-14 6 -34 7v21h206l339 -487h4v339
q0 40 -5.5 60t-16.5 33t-21 18.5t-24 9.5q-8 2 -19.5 3.5t-22.5 2.5v21h250v-21q-14 -2 -22.5 -3.5t-18.5 -4.5q-13 -4 -22.5 -10.5t-18.5 -19.5q-9 -12 -13.5 -30.5t-4.5 -58.5v-518h-38z" />
    <glyph glyph-name="O" unicode="O" horiz-adv-x="700" 
d="M350 670q65 0 122 -25.5t99 -70.5t66.5 -108t24.5 -138t-24.5 -138t-66.5 -108t-99 -70.5t-122 -25.5t-122 25.5t-99 70.5t-66.5 108t-24.5 138t24.5 138t66.5 108t99 70.5t122 25.5zM350 21q55 0 98 27q20 13 38.5 34t32 54t21.5 80t8 112t-8 112t-21.5 80t-32 54
t-38.5 34q-43 27 -98 27t-98 -27q-20 -13 -38.5 -34t-32 -54t-21.5 -80t-8 -112t8 -112t21.5 -80t32 -54t38.5 -34q43 -27 98 -27z" />
    <glyph glyph-name="P" unicode="P" horiz-adv-x="575" 
d="M322 0h-292v21q22 1 36 6q16 5 27 13.5t19 24.5q9 18 11.5 39t2.5 65v321q0 44 -2.5 65t-11.5 39q-8 16 -19 24.5t-27 13.5q-7 2 -16.5 3t-20.5 2v21h301q103 0 164 -42.5t61 -125.5q0 -56 -24.5 -93t-59.5 -57q-26 -14 -70 -27t-108 -13h-69v-131q0 -44 2.5 -65
t11.5 -39q8 -16 19 -24.5t27 -13.5q13 -4 38 -6v-21zM224 336h69q58 0 88.5 12t46.5 34q16 21 21 50t5 54q0 66 -32 101.5t-107 35.5h-68q-8 0 -13 -0.5t-7 -4.5q-3 -4 -3 -20v-262z" />
    <glyph glyph-name="Q" unicode="Q" horiz-adv-x="700" 
d="M350 670q65 0 122 -25.5t99 -70.5t66.5 -108t24.5 -138q0 -64 -18 -119.5t-50 -98.5t-76 -72.5t-95 -42.5h1q-19 -4 -42.5 -11.5t-47.5 -16.5t-45.5 -18t-35.5 -16v-5q14 3 27.5 4t27.5 1q49 0 89.5 -12.5t69.5 -32.5q42 -28 78 -49t74 -21q21 0 36 8t26.5 19.5
t19.5 24.5l14 22l22 -12q-11 -23 -26.5 -50.5t-32.5 -46.5q-6 -7 -17.5 -16t-27 -16.5t-34 -12.5t-39.5 -5q-42 0 -82.5 22.5t-80.5 60.5l-38 35q-18 17 -37.5 30t-40 21t-44.5 8q-20 0 -36.5 -12t-16.5 -32q0 -5 1 -11t3 -13q2 -9 2 -20.5t-2 -25.5q-4 -23 -18.5 -30
t-28.5 -7q-18 0 -31 13t-13 40q0 28 13.5 51.5t33.5 41.5t41.5 31t38.5 21q14 7 33.5 15.5t46.5 17.5q-57 8 -105.5 36.5t-84 72.5t-56 102.5t-20.5 126.5q0 75 24.5 138t66.5 108t99 70.5t122 25.5zM350 21q55 0 98 27q20 13 38.5 34t32 54t21.5 80t8 112t-8 112
t-21.5 79.5t-32 53.5t-38.5 34q-43 27 -98 27t-98 -27q-20 -13 -38.5 -34t-32 -53.5t-21.5 -79.5t-8 -112t8 -112t21.5 -80t32 -54t38.5 -34q43 -27 98 -27z" />
    <glyph glyph-name="R" unicode="R" horiz-adv-x="662" 
d="M246 623q-8 0 -13 -0.5t-7 -4.5q-3 -4 -3 -20v-246h83q29 0 49 2.5t33.5 7t23 12t17.5 18.5q14 19 21 43t7 56q0 66 -30 99t-98 33h-83zM319 0h-290v21q22 1 36 6q16 5 27 13.5t19 24.5q9 18 11.5 39t2.5 65v320q0 44 -2.5 65t-11.5 39q-8 16 -19 24.5t-27 13.5
q-14 4 -36 6v21h314q49 0 89.5 -11t69 -32t44 -51t15.5 -69q0 -46 -21.5 -76t-51.5 -50q-13 -8 -35.5 -17t-60.5 -17v-6q24 -3 46 -10t36 -17q22 -14 40.5 -39t28.5 -76q12 -66 26 -100.5t31 -46.5q11 -8 26.5 -13t35.5 -7v-20h-163q-17 19 -30 55t-19 79q-4 29 -7.5 51.5
t-8 40t-11.5 31.5t-17 27q-17 20 -42 26t-57 6h-84v-147q0 -44 2.5 -65t11.5 -39q8 -16 19 -24.5t27 -13.5q13 -5 36 -6v-21z" />
    <glyph glyph-name="S" unicode="S" horiz-adv-x="517" 
d="M266 -14q-54 0 -99 18t-70 41h-5l-26 -41h-19l-9 218h21q15 -43 36 -79.5t48 -63.5t58 -42t65 -15q66 0 97.5 32t31.5 81q0 33 -11 56.5t-31.5 41.5t-50 32.5t-66.5 30.5q-34 14 -66.5 30.5t-58 40t-41 55t-15.5 75.5q0 38 14.5 70t40 55t59.5 35.5t74 12.5q28 0 48.5 -3
t36 -8t28.5 -12l25 -15h5l21 30h25l16 -191h-23q-14 38 -35 72t-42 52q-19 16 -41 27.5t-64 11.5q-18 0 -36 -6.5t-33 -18.5t-24 -29.5t-9 -40.5q0 -36 12.5 -58.5t32.5 -38.5t45.5 -27.5t51.5 -24.5l75 -37q36 -18 63.5 -41t44 -54t16.5 -77q0 -47 -18 -83t-48 -61t-69 -38
t-81 -13z" />
    <glyph glyph-name="T" unicode="T" horiz-adv-x="624" 
d="M361 169q0 -44 2.5 -65t11.5 -39q8 -16 19 -24.5t27 -13.5q13 -5 36 -6v-21h-290v21q22 1 36 6q16 5 27 13.5t19 24.5q9 18 11.5 39t2.5 65v454h-27q-34 0 -66.5 -7t-63.5 -30q-17 -13 -29 -24.5t-20.5 -22.5t-14.5 -23l-14 -27h-21l29 169h552l29 -169h-21l-13 27
q-7 12 -15.5 23t-20.5 22.5t-29 24.5q-31 23 -63.5 30t-66.5 7h-27v-454z" />
    <glyph glyph-name="U" unicode="U" horiz-adv-x="709" 
d="M602 220q0 -51 -7.5 -86t-28.5 -67q-24 -37 -73.5 -58.5t-128.5 -21.5q-39 0 -77 7t-71 22t-58 38t-37 56q-5 13 -8.5 31t-5.5 37t-3 37t-1 32v242q0 44 -2.5 65t-11.5 39q-8 16 -19 24.5t-27 13.5q-14 4 -36 6v21h290v-21q-23 -2 -36 -6q-16 -5 -27 -13.5t-19 -24.5
q-9 -18 -11.5 -39t-2.5 -64v-279q0 -22 2 -44.5t10 -46.5q8 -27 24 -45.5t37.5 -30t46.5 -16t52 -4.5q123 0 163 66q14 23 19.5 52.5t5.5 71.5v296q0 40 -5.5 60t-16.5 33t-21 18.5t-24 9.5q-8 2 -19.5 3.5t-22.5 2.5v21h250v-21q-14 -2 -22.5 -3.5t-18.5 -4.5
q-13 -4 -22.5 -10.5t-18.5 -19.5q-9 -12 -13.5 -30.5t-4.5 -58.5v-290z" />
    <glyph glyph-name="V" unicode="V" horiz-adv-x="630" 
d="M348 139h7l125 363q8 22 12 39.5t4 34.5q0 20 -8.5 33t-22.5 19q-8 4 -21.5 6t-27.5 3v21h224v-21q-14 -2 -26 -4.5t-22 -8.5q-20 -12 -34 -38q-15 -27 -38 -89l-182 -502h-38l-184 505q-9 26 -18.5 46t-19.5 34q-12 17 -24 27.5t-26 17.5q-8 4 -18 7t-20 5v21h302v-21
q-36 -3 -51 -8q-14 -5 -25 -14t-11 -32t8 -47.5t16 -46.5z" />
    <glyph glyph-name="W" unicode="W" horiz-adv-x="957" 
d="M334 151h7l124 380q-8 22 -14 35t-14 24q-12 17 -22 25.5t-24 13.5q-18 7 -38 8v21h299v-21q-39 -3 -51 -7q-14 -5 -24.5 -12.5t-10.5 -30.5t7.5 -49t15.5 -48l103 -339h7l108 351q8 26 12.5 43.5t4.5 34.5q0 20 -9 31t-23 17q-8 4 -21.5 6t-27.5 3v21h224v-21
q-14 -2 -26 -4.5t-22 -8.5q-16 -9 -34 -38q-15 -24 -38 -89l-168 -502h-36l-158 479l-164 -479h-36l-165 497q-12 37 -21.5 56.5t-19.5 33.5q-12 17 -23 26.5t-25 16.5q-8 4 -19.5 7t-21.5 5v21h302v-21q-36 -3 -51 -8q-14 -5 -24.5 -13.5t-10.5 -28.5q0 -23 7 -44.5
t16 -52.5z" />
    <glyph glyph-name="X" unicode="X" horiz-adv-x="612" 
d="M296 658v-21q-36 -3 -58.5 -9.5t-22.5 -28.5q0 -19 5 -29t17 -28l99 -150l82 115l27 41q11 18 11 38q0 17 -9 27.5t-23 15.5q-7 3 -19 4.5t-26 3.5v21h243v-21q-8 -1 -20 -5.5t-21 -8.5q-11 -5 -24 -13t-25 -19q-11 -10 -26.5 -28.5t-41.5 -56.5l-106 -147l128 -192
l39 -58q17 -26 35 -44.5t38.5 -29.5t47.5 -14v-21h-307v21q15 1 29 4t25 8.5t18 13t7 19.5q0 14 -6 28t-27 45l-96 144l-95 -132l-26 -41q-12 -18 -12 -38q0 -17 9 -27.5t23 -15.5q7 -3 19 -4.5t26 -3.5v-21h-243v21q8 1 20 5.5t21 8.5q11 5 24 13t25 19q11 10 26.5 28.5
t41.5 56.5l119 164l-117 175l-43 63q-18 27 -35.5 44.5t-36 26.5t-45.5 12v21h306z" />
    <glyph glyph-name="Y" unicode="Y" horiz-adv-x="594" 
d="M97 536q-17 30 -30 48t-25.5 28.5t-25 16t-26.5 8.5v21h281v-21q-36 -3 -51 -8q-33 -11 -29.5 -37t27.5 -68l106 -190h5l96 173q19 33 26 51t7 37q0 17 -6.5 23.5t-20.5 11.5q-8 3 -20 4l-20 3v21h213v-21q-25 -3 -43 -12.5t-33.5 -26t-30.5 -41t-34 -58.5l-121 -219
v-111q0 -44 2.5 -65t11.5 -39q8 -16 19 -24.5t27 -13.5q13 -5 36 -6v-21h-290v21q22 1 36 6q16 5 27 13.5t19 24.5q9 18 11.5 39t2.5 65v112z" />
    <glyph glyph-name="Z" unicode="Z" horiz-adv-x="589" 
d="M547 633l-386 -598h93q34 0 59.5 1.5t46 5t36.5 9t32 13.5q26 13 44 28.5t32 31.5t25.5 33.5t25.5 35.5h24l-61 -193h-483v25l391 598h-112q-26 0 -46 -1t-37 -5t-31.5 -10.5t-28.5 -16.5q-26 -19 -50.5 -47.5t-49.5 -66.5h-24l47 182h453v-25z" />
    <glyph glyph-name="a" unicode="a" horiz-adv-x="416" 
d="M412 7q-7 -5 -29.5 -11t-51.5 -6q-18 0 -29 3t-19 8q-9 6 -16 18t-7 35h-6q-4 -9 -12.5 -20t-22 -20.5t-33 -16.5t-44.5 -7q-24 0 -44.5 7t-36.5 20.5t-25 34t-9 47.5q0 19 7.5 39.5t24.5 36.5q23 20 46.5 30t60.5 21q40 11 60 21t28 24l1 82q0 30 -13.5 41.5t-41.5 11.5
q-29 0 -45 -11q-8 -5 -14.5 -17t-9.5 -31q-6 -41 -42 -41q-17 0 -28 10.5t-11 28.5q0 25 20 45q16 17 51 30.5t78 13.5q65 0 103.5 -20t38.5 -70q0 -12 -0.5 -41.5t-1.5 -65.5l-1 -70v-58q0 -34 2.5 -49t6.5 -22q8 -16 28 -16q8 0 17 1.5t14 3.5zM254 237q-7 -7 -24 -15
l-39 -18q-20 -9 -36 -17.5t-25 -19.5t-14.5 -27.5t-5.5 -36.5q0 -41 19 -56t42 -15q29 0 50.5 15t29.5 42z" />
    <glyph glyph-name="b" unicode="b" horiz-adv-x="495" 
d="M273 397q-25 0 -44 -6.5t-36 -21.5q-13 -12 -25.5 -34t-12.5 -59v-116q0 -38 6 -62.5t20 -40.5q15 -17 37.5 -26t42.5 -9q58 0 85 51t27 139q0 52 -7.5 87t-21 57t-31.5 31.5t-40 9.5zM151 684q6 0 6 -6q0 -21 -1 -46.5t-1 -65.5v-200h3q24 37 57 52.5t75 15.5
q32 0 64 -11.5t57.5 -37.5t41 -68.5t15.5 -104.5q0 -58 -18.5 -100t-47.5 -69t-65 -39.5t-72 -12.5t-71 18t-52 47h-10l-41 -58h-24q2 22 2.5 44.5t0.5 41.5v499q0 10 -1 24.5t-3 21.5q-5 16 -17 24q-9 5 -18.5 7t-23.5 3v21h144z" />
    <glyph glyph-name="c" unicode="c" horiz-adv-x="427" 
d="M239 406q-17 0 -34 -5t-30 -15q-55 -43 -55 -173q0 -66 15 -104.5t42 -59.5t64 -21q33 0 56 7.5t38.5 20.5t25 29.5t15.5 33.5l28 -11q-17 -55 -58.5 -86.5t-113.5 -31.5q-38 0 -68.5 11t-56.5 31q-38 29 -59 75t-21 106q0 51 17.5 92t46.5 69.5t67.5 44t80.5 15.5
q31 0 54 -4.5t39 -11.5t26.5 -15.5t18.5 -16.5q11 -11 15.5 -22.5t4.5 -22.5q0 -25 -12 -35t-29 -10q-23 0 -33.5 15.5t-17.5 39.5q-8 29 -22 42t-44 13z" />
    <glyph glyph-name="d" unicode="d" horiz-adv-x="497" 
d="M356 0q-4 0 -6 5q-1 5 -1 9v10q-1 17 -1 26v18h-8q-14 -35 -47 -56.5t-80 -21.5q-36 0 -69.5 14.5t-59.5 43t-41.5 70t-15.5 94.5q0 58 18 100t47 69t65.5 40t72.5 13q45 0 69.5 -14.5t35.5 -31.5h6v195q0 10 -0.5 24t-2.5 21q-2 8 -8 14t-12 10q-9 5 -20.5 7.5
t-25.5 3.5v21h148q6 0 6 -6q-1 -18 -2 -45t-1 -67v-458q0 -13 0.5 -24t2.5 -20q6 -25 29 -36q5 -2 14.5 -4t17.5 -3v-21h-131zM338 295q0 24 -5 42.5t-20 35.5q-14 15 -31 22t-41 7q-25 0 -47 -11t-38.5 -34t-26 -59t-9.5 -86q0 -53 10 -88t26.5 -56t37.5 -30t44 -9
q47 0 73.5 35t26.5 87v144z" />
    <glyph glyph-name="e" unicode="e" horiz-adv-x="435" 
d="M409 115q-20 -55 -64 -90t-112 -35q-44 0 -77.5 13t-57.5 35q-37 33 -54 79.5t-17 94.5t17 89t45.5 70.5t65 46t76.5 16.5q47 0 80.5 -15.5t54.5 -38.5t31 -51.5t10 -53.5q0 -14 -0.5 -27.5t-2.5 -21.5h-284v-14q0 -21 2 -42.5t7 -41.5t13 -37.5t21 -30.5
q14 -15 34.5 -24t49.5 -9q30 0 52.5 9.5t39 24.5t27.5 32.5t18 33.5zM169 383q-17 -17 -30 -46.5t-17 -79.5h171q15 0 22 9t7 35q0 29 -5 48t-18 33q-11 12 -26.5 18t-40.5 6q-16 0 -32.5 -5t-30.5 -18z" />
    <glyph glyph-name="f" unicode="f" horiz-adv-x="289" 
d="M30 0v20q8 1 15.5 3t12.5 4q23 11 29 36q2 9 2.5 20t0.5 24v282h-66v35h66v86q0 30 4 51.5t10.5 37.5t15.5 27.5t18 20.5q16 16 45 29t64 13t56.5 -5.5t34.5 -13.5q40 -23 40 -64q0 -19 -11.5 -31t-30.5 -12q-31 0 -42 24q-3 6 -4 13l-4 16q-4 16 -7 20.5t-7 9.5
q-5 7 -15 10t-18 3q-37 0 -52 -34q-7 -15 -9.5 -36.5t-2.5 -48.5v-116h108v-35h-108v-282q0 -13 0.5 -24t2.5 -20q3 -13 8.5 -21.5t18.5 -14.5q5 -2 17 -4t23 -3v-20h-215z" />
    <glyph glyph-name="g" unicode="g" horiz-adv-x="468" 
d="M121 166q-33 17 -54 48t-21 76q0 34 13.5 60.5t36 45t51.5 28.5t61 10q84 0 132 -65h8q15 29 35 42t43 13q27 0 39.5 -15t12.5 -35q0 -19 -10.5 -27.5t-24.5 -8.5q-21 0 -31 18q-5 9 -9.5 14.5t-14.5 5.5q-8 0 -16.5 -7t-8.5 -24q0 -7 2 -14t4 -16q1 -5 1.5 -11.5
t0.5 -13.5q0 -35 -14 -62t-36.5 -45t-52 -27.5t-60.5 -9.5h-1q-8 0 -21.5 1t-22.5 1q-11 0 -22 -2t-20.5 -7t-15.5 -13.5t-6 -21.5q0 -18 14.5 -27.5t38.5 -9.5q7 0 27 1t43 1.5t44 1.5t32 1q28 0 52.5 -5t42.5 -18t28 -35.5t10 -58.5q0 -42 -21 -73.5t-55 -52.5t-76 -31.5
t-85 -10.5q-99 0 -144 30t-45 75q0 38 30.5 63t84.5 39v6q-31 5 -54 24.5t-23 50.5q0 19 7.5 33.5t19.5 25t25.5 17t25.5 9.5v6zM372 -69q0 33 -20 46t-54 14q-26 1 -58.5 -0.5t-56.5 -3.5q-15 -2 -33.5 -5.5t-34.5 -13t-26.5 -26t-10.5 -43.5q0 -46 32.5 -64t93.5 -18
q28 0 58 6.5t54.5 20t40 35t15.5 52.5zM126 290q0 -62 24 -89t57 -27t58.5 27t25.5 89t-25.5 89.5t-58.5 27.5t-57 -27.5t-24 -89.5z" />
    <glyph glyph-name="h" unicode="h" horiz-adv-x="527" 
d="M445 108q0 -13 0.5 -24t2.5 -20q6 -25 29 -36q5 -2 12.5 -4t15.5 -3v-21h-203v21q8 1 15.5 3t12.5 4q13 6 18.5 14.5t8.5 21.5q2 9 2.5 20t0.5 24v216q0 35 -19 53q-15 14 -48 14q-27 0 -52 -12.5t-41 -34.5q-12 -16 -18 -39.5t-6 -46.5v-150q0 -13 0.5 -24t2.5 -20
q3 -13 8.5 -21.5t18.5 -14.5q5 -2 12.5 -4t15.5 -3v-21h-203v21q8 1 15.5 3t12.5 4q23 11 29 36q2 9 2.5 20t0.5 24v475q0 10 -0.5 24t-2.5 21q-5 16 -18 24q-16 10 -42 11v21h144q6 0 6 -6q0 -21 -1 -46.5t-1 -65.5v-206h7q16 26 44 45q41 29 99 29q47 0 78 -22
q41 -30 41 -89v-215z" />
    <glyph glyph-name="i" unicode="i" horiz-adv-x="258" 
d="M134 544q-23 0 -38.5 15t-15.5 38t15.5 38t38.5 15t38.5 -15t15.5 -38t-15.5 -38t-38.5 -15zM176 108q0 -13 0.5 -24t2.5 -20q6 -25 29 -36q5 -2 12.5 -4t15.5 -3v-21h-205v21q8 1 15.5 3t12.5 4q23 11 29 36q2 9 2.5 20t0.5 24v215q0 10 -0.5 24t-2.5 21q-5 16 -18 24
q-16 10 -42 11v21h144q6 0 6 -6q-1 -18 -1.5 -40.5t-0.5 -54.5v-215z" />
    <glyph glyph-name="j" unicode="j" horiz-adv-x="245" 
d="M131 544q-23 0 -38.5 15t-15.5 38t15.5 38t38.5 15t38.5 -15t15.5 -38t-15.5 -38t-38.5 -15zM88 323q0 10 -0.5 24t-2.5 21q-5 16 -18 24q-16 10 -42 11v21h144q6 0 6 -6q-1 -18 -1.5 -40.5t-0.5 -54.5v-334q0 -41 -7 -69.5t-17.5 -49t-24 -33.5t-25.5 -22
q-14 -11 -36.5 -19.5t-51.5 -8.5q-45 0 -75 21q-36 24 -36 65q0 23 13 35t29 12q25 0 35 -13.5t10 -28.5v-7q0 -3 -1 -8t-1.5 -10.5t-0.5 -9.5q0 -13 8.5 -20.5t22.5 -7.5t26.5 4t23.5 15t17 31.5t6 55.5v402z" />
    <glyph glyph-name="k" unicode="k" horiz-adv-x="491" 
d="M255 255q45 -4 82 -25t46 -59q8 -37 18.5 -70t24.5 -48q9 -10 22.5 -19.5t42.5 -12.5v-21h-144q-6 5 -10 13.5t-7.5 23t-8 36t-12.5 51.5q-5 19 -11 36.5t-15 32t-22 24.5t-34 15l-51 -43v-81q0 -13 0.5 -24t2.5 -20q6 -25 29 -36q13 -5 30 -7v-21h-207v21q8 1 15.5 3
t12.5 4q23 11 29 36q2 9 2.5 20t0.5 24v475q0 10 -0.5 24t-2.5 21q-5 16 -18 24q-16 10 -42 11v21h144q6 0 6 -6q-1 -18 -1.5 -40.5t-0.5 -54.5v-359l90 77q23 19 36 34.5t13 32.5q0 12 -6 18t-14 10q-12 5 -37 7v21h207v-21q-26 -5 -61 -26q-8 -5 -29 -22l-63 -52z" />
    <glyph glyph-name="l" unicode="l" horiz-adv-x="258" 
d="M176 108q0 -13 0.5 -24t2.5 -20q6 -25 29 -36q5 -2 12.5 -4t15.5 -3v-21h-205v21q8 1 15.5 3t12.5 4q23 11 29 36q2 9 2.5 20t0.5 24v475q0 10 -0.5 24t-2.5 21q-5 16 -18 24q-16 10 -42 11v21h144q6 0 6 -6q-1 -18 -1.5 -40.5t-0.5 -54.5v-475z" />
    <glyph glyph-name="m" unicode="m" horiz-adv-x="768" 
d="M431 108q0 -13 0.5 -24t2.5 -20q6 -25 29 -36q5 -2 11.5 -4t14.5 -3v-21h-201v21q8 1 15.5 3t12.5 4q13 6 18.5 14.5t8.5 21.5q2 9 2.5 20t0.5 24v216q0 17 -3 30t-14 23q-8 8 -17.5 11t-26.5 3q-27 0 -48 -12.5t-37 -34.5q-12 -16 -18 -39.5t-6 -46.5v-150
q0 -13 0.5 -24t2.5 -20q3 -13 8.5 -21.5t18.5 -14.5q5 -2 12.5 -4t15.5 -3v-21h-203v21q8 1 15.5 3t12.5 4q23 11 29 36q2 9 2.5 20t0.5 24v215q0 10 -0.5 24t-2.5 21q-5 16 -18 24q-16 10 -42 11v21h142q6 0 6 -6l-2 -64h7q18 30 44 50q36 30 88 30q26 0 45 -5t34 -18
q25 -21 33 -57h6q20 32 50 53q38 27 87 27q26 0 45 -5t34 -18q19 -16 29 -37.5t10 -51.5v-214q0 -13 0.5 -24t2.5 -20q6 -25 29 -36q5 -2 12.5 -4t15.5 -3v-21h-203v21q8 1 15.5 3t12.5 4q13 6 18.5 14.5t8.5 21.5q2 9 2.5 20t0.5 24v216q0 17 -3 30t-14 23q-8 8 -17.5 11
t-26.5 3q-27 0 -48 -12.5t-37 -34.5q-12 -16 -18 -39.5t-6 -46.5v-150z" />
    <glyph glyph-name="n" unicode="n" horiz-adv-x="527" 
d="M445 108q0 -13 0.5 -24t2.5 -20q6 -25 29 -36q5 -2 12.5 -4t15.5 -3v-21h-203v21q8 1 15.5 3t12.5 4q13 6 18.5 14.5t8.5 21.5q2 9 2.5 20t0.5 24v216q0 35 -19 53q-15 14 -48 14q-27 0 -52 -12.5t-41 -34.5q-12 -16 -18 -39.5t-6 -46.5v-150q0 -13 0.5 -24t2.5 -20
q3 -13 8.5 -21.5t18.5 -14.5q5 -2 12.5 -4t15.5 -3v-21h-203v21q8 1 15.5 3t12.5 4q23 11 29 36q2 9 2.5 20t0.5 24v215q0 10 -0.5 24t-2.5 21q-5 16 -18 24q-16 10 -42 11v21h142q6 0 6 -6l-2 -64h7q20 32 53 53q41 27 92 27q47 0 78 -22q41 -30 41 -89v-215z" />
    <glyph glyph-name="o" unicode="o" horiz-adv-x="472" 
d="M27 213q0 51 17 92t45.5 69.5t66.5 44t80 15.5t80 -15.5t66.5 -44t45.5 -69.5t17 -92t-17 -92.5t-45.5 -70.5t-66.5 -44.5t-80 -15.5t-80 15.5t-66.5 44.5t-45.5 70.5t-17 92.5zM352 213q0 130 -55 173q-13 10 -28.5 14.5t-32.5 4.5t-32.5 -4.5t-28.5 -14.5
q-55 -43 -55 -173t55 -173q27 -21 61 -21t61 21q55 43 55 173z" />
    <glyph glyph-name="p" unicode="p" horiz-adv-x="505" 
d="M383 212q0 52 -7.5 87t-21 57t-31.5 31.5t-40 9.5q-25 0 -42.5 -6.5t-34.5 -21.5q-13 -12 -25.5 -34t-12.5 -59v-117q0 -38 6 -62.5t20 -40.5q15 -17 36 -26t41 -9q58 0 85 51.5t27 139.5zM23 -193q8 1 15.5 3t12.5 4q23 11 29 36q2 9 2.5 20t0.5 24v429q0 10 -0.5 24
t-2.5 21q-5 16 -18 24q-16 10 -42 11v21h142q6 0 6 -6l-1 -57h3q22 37 55 55t75 18q32 0 64 -11.5t57.5 -37.5t41 -68.5t15.5 -104.5q0 -58 -18 -100t-47 -69t-64.5 -40t-71.5 -13q-61 0 -103 36h-6v-132q0 -13 0.5 -24t2.5 -20q6 -25 29 -36q5 -2 14 -4t22 -3v-20h-213v20z
" />
    <glyph glyph-name="q" unicode="q" horiz-adv-x="503" 
d="M338 295q0 24 -5 42.5t-20 35.5q-14 15 -31 22t-41 7q-25 0 -47 -11t-38.5 -34t-26 -59t-9.5 -86q0 -53 10 -88t26.5 -56t37.5 -30t44 -9q47 0 73.5 35t26.5 87v144zM368 375l43 56h28l-4 -51q-2 -25 -2 -55v-431q0 -13 0.5 -24t2.5 -20q6 -25 29 -36q5 -2 12.5 -4
t15.5 -3v-20h-211v20q10 1 19 2.5t17 4.5q12 5 18 14t9 22q2 9 2.5 20t0.5 24v160h-8q-14 -29 -47 -46.5t-80 -17.5q-36 0 -69.5 14.5t-59.5 43t-41.5 70t-15.5 94.5q0 58 19.5 100t50 69t68.5 40t74 13q41 0 69.5 -13.5t52.5 -45.5h7z" />
    <glyph glyph-name="r" unicode="r" horiz-adv-x="377" 
d="M180 343q13 27 24.5 40.5t24.5 24.5q12 10 31.5 18t44.5 8q14 0 28 -4.5t24 -13.5q6 -6 10.5 -15.5t4.5 -26.5q0 -18 -9.5 -32t-33.5 -14q-20 0 -29.5 10.5t-14.5 26.5q-7 20 -27 20q-11 0 -23.5 -9t-24.5 -24t-21 -35t-11 -42q-1 -6 -1.5 -24.5t-0.5 -35.5v-107
q0 -13 0.5 -24t2.5 -20q3 -13 9 -22t18 -14q8 -3 17 -4.5t19 -2.5v-21h-211v21q8 1 15.5 3t12.5 4q23 11 29 36q2 9 2.5 20t0.5 24v215q0 10 -0.5 24t-2.5 21q-5 16 -18 24q-16 10 -42 11v21h142q6 0 6 -6l-3 -75h7z" />
    <glyph glyph-name="s" unicode="s" horiz-adv-x="364" 
d="M344 122q0 -34 -12 -59t-32.5 -41t-47 -24t-55.5 -8q-34 0 -64.5 10.5t-54.5 33.5h-4l-16 -34h-18l-5 161h20q20 -60 57.5 -100.5t86.5 -40.5q35 0 55.5 15.5t20.5 46.5q0 19 -6.5 32t-19.5 22.5t-34 18.5l-48 21q-26 11 -49 22t-40.5 26.5t-28 37.5t-10.5 56
q0 22 9.5 42.5t27.5 37t44 26.5t59 10q36 0 60.5 -9t36.5 -20h3l13 21h16l7 -128h-20q-18 48 -43.5 77t-72.5 29q-33 0 -52.5 -16t-19.5 -42q0 -17 4.5 -29.5t15.5 -23t30.5 -20.5t48.5 -21l52 -22q25 -10 44 -25t30.5 -35t11.5 -48z" />
    <glyph glyph-name="t" unicode="t" horiz-adv-x="301" 
d="M301 40q-23 -30 -52 -40t-58 -10t-49.5 6t-37.5 21q-14 12 -19 28.5t-5 44.5v300l-73 3v20q24 4 43 14.5t35.5 30t30.5 49.5t27 73h22v-156h111v-35h-111v-299q0 -27 12 -42t42 -15q20 0 38 5.5t32 18.5z" />
    <glyph glyph-name="u" unicode="u" horiz-adv-x="516" 
d="M434 108q0 -13 0.5 -24t2.5 -20q6 -25 29 -36q5 -2 14.5 -4t17.5 -3v-21h-137q-7 0 -7 9q0 2 -0.5 11.5t-0.5 20.5v27h-7q-11 -20 -20.5 -31t-22.5 -21q-16 -12 -38 -19t-51 -7t-58.5 9t-49.5 33q-13 15 -19.5 35t-6.5 56v200q0 10 -0.5 24t-2.5 21q-5 16 -18 24
q-16 10 -42 11v21h145q6 0 6 -6q-1 -19 -2 -41.5t-1 -59.5v-190q0 -23 3.5 -40t16.5 -31t27.5 -19t32.5 -5q16 0 32.5 5.5t30.5 16.5q15 12 25.5 30.5t12.5 44.5q2 19 2.5 31.5t0.5 35.5v127q0 10 -0.5 24t-2.5 21q-5 16 -18 24q-18 10 -44 11v21h147q6 0 6 -6
q-1 -19 -2 -41.5t-1 -59.5v-209z" />
    <glyph glyph-name="v" unicode="v" horiz-adv-x="447" 
d="M452 403q-6 -1 -14 -2.5t-16 -6.5q-6 -4 -11.5 -9t-12.5 -15t-16 -30l-20 -45l-121 -299h-32l-118 276q-25 62 -34 82q-8 17 -13 25t-14 14q-8 5 -18.5 7t-16.5 3v21h212v-21q-29 -2 -38 -7q-6 -3 -11.5 -9.5t-5.5 -20.5t6 -30.5t16 -41.5l77 -191h5l69 186
q6 15 9.5 24.5t6 17.5t3.5 15.5t1 16.5q0 14 -5.5 21t-13.5 12q-8 4 -17 5t-16 2v21h159v-21z" />
    <glyph glyph-name="w" unicode="w" horiz-adv-x="667" 
d="M672 403q-6 -1 -13.5 -3t-15.5 -7q-6 -4 -11 -8.5t-12 -14.5t-14 -25t-21 -50l-111 -299h-32l-108 276l-103 -276h-32l-108 276l-20 52q-9 21 -14 30q-8 17 -13 25t-14 14q-8 5 -18.5 7t-16.5 3v21h213v-21l-19 -2q-11 -2 -17 -5q-7 -4 -12.5 -11t-5.5 -21t4.5 -29
t13.5 -41l67 -191h5l74 210l-17 41q-8 17 -13.5 25t-14.5 14q-8 5 -15.5 7t-13.5 3v21h200v-21q-12 -1 -17.5 -2.5t-11.5 -4.5q-7 -4 -12.5 -11t-5.5 -21t4.5 -29t13.5 -41l67 -191h5l61 186l9 25q3 10 5 17.5t3 15t1 16.5q0 14 -5.5 21t-13.5 12q-8 4 -13.5 5t-15.5 2v21
h154v-21z" />
    <glyph glyph-name="x" unicode="x" horiz-adv-x="415" 
d="M197 174l-44 -63l-23 -35q-7 -12 -7 -21q0 -18 17 -25q13 -6 33 -9v-21h-167v21q24 5 40 15q12 7 21.5 15.5t18.5 19t19 24t22 31.5l52 75l-83 119l-31 43q-12 17 -23 25q-7 5 -17.5 9t-24.5 6v21h209v-21q-10 -1 -16.5 -2t-14.5 -3t-13.5 -5.5t-5.5 -14.5q0 -10 5 -18
l13 -20l56 -82l37 54q29 43 29 60q0 12 -3.5 16.5t-11.5 7.5q-7 3 -15 4t-18 3v21h164v-20q-24 -5 -40 -15q-12 -8 -21 -16t-18 -19t-18 -25l-22 -32l-44 -66l85 -123q18 -26 33 -45t26 -27q7 -5 17.5 -9t24.5 -6v-21h-209v21q10 1 16.5 2t14.5 3t13.5 5.5t5.5 14.5
q0 10 -5 18l-13 20z" />
    <glyph glyph-name="y" unicode="y" horiz-adv-x="447" 
d="M217 -54l-24 -55q-12 -30 -30 -54q-16 -21 -39.5 -35.5t-58.5 -14.5q-31 0 -50.5 16t-19.5 40q0 20 12 31.5t27 11.5q17 0 27 -6.5t19 -17.5q11 -12 17 -15t16 -3q22 0 37.5 31.5t34.5 76.5q11 28 11 49q0 16 -6 30l-99 241q-25 62 -34 82q-8 17 -13 25t-14 14
q-8 5 -18.5 7t-16.5 3v21h212v-21l-19 -3q-11 -1 -17 -4q-7 -4 -12.5 -11t-5.5 -21t5.5 -29.5t15.5 -40.5l72 -182h5l74 177q6 15 9.5 24.5t6 17.5t3.5 15.5t1 16.5q0 14 -5.5 21t-13.5 12q-8 4 -17 5t-16 2v21h159v-21q-6 -1 -14 -2.5t-16 -6.5q-6 -4 -11.5 -9t-12.5 -15
q-14 -21 -36 -75z" />
    <glyph glyph-name="z" unicode="z" horiz-adv-x="408" 
d="M365 0h-333v14l237 380v4h-95q-19 0 -32 -6t-26 -19q-17 -16 -33 -34t-34 -41h-24l46 126h299v-17l-231 -378v-3h82q35 0 54.5 8t33.5 24q20 23 35.5 43.5t26.5 40.5h23z" />
    <glyph glyph-name="quoteleft" unicode="&#x2018;" horiz-adv-x="183" 
d="M40 535q0 53 29 85t80 54l9 -19q-32 -15 -50.5 -33t-18.5 -38q0 -8 10 -11q22 -8 36 -20.5t14 -33.5q0 -20 -13.5 -34t-36.5 -14q-24 0 -41.5 15t-17.5 49z" />
    <glyph glyph-name="quoteright" unicode="&#x2019;" horiz-adv-x="183" 
d="M143 610q0 -53 -29 -85t-80 -54l-9 19q32 15 50.5 33t18.5 38q0 8 -10 11q-22 8 -36 20.5t-14 33.5q0 20 13.5 34t36.5 14q24 0 41.5 -15t17.5 -49z" />
    <glyph glyph-name="quotedblleft" unicode="&#x201c;" horiz-adv-x="331" 
d="M158 655q-32 -15 -50.5 -33t-18.5 -38q0 -8 10 -11q22 -8 36 -19.5t14 -34.5q0 -20 -13.5 -34t-36.5 -14q-24 0 -41.5 15t-17.5 49q0 53 29 85t80 54zM247 471q-24 0 -41.5 15t-17.5 49q0 53 29 85t80 54l9 -19q-32 -15 -50.5 -33t-18.5 -38q0 -8 10 -11q22 -8 36 -20.5
t14 -33.5q0 -20 -13.5 -34t-36.5 -14z" />
    <glyph glyph-name="quotedblright" unicode="&#x201d;" horiz-adv-x="331" 
d="M291 610q0 -53 -29 -85t-80 -54l-9 19q32 15 50.5 33t18.5 38q0 8 -10 11q-22 8 -36 20.5t-14 33.5q0 20 13.5 34t36.5 14q24 0 41.5 -15t17.5 -49zM143 610q0 -53 -29 -85t-80 -54l-9 19q32 15 50.5 33t18.5 38q0 8 -10 11q-22 8 -36 20.5t-14 33.5q0 20 13.5 34
t36.5 14q24 0 41.5 -15t17.5 -49z" />
  </font>
</defs>
</svg>
