<?xml version="1.0" encoding="utf-8"?>
<!-- Generator: Adobe Illustrator 21.0.0, SVG Export Plug-In . SVG Version: 6.00 Build 0)  -->
<svg version="1.1" id="Layer_1" xmlns="http://www.w3.org/2000/svg" xmlns:xlink="http://www.w3.org/1999/xlink" x="0px" y="0px"
	 viewBox="0 0 32 32" style="enable-background:new 0 0 32 32;" xml:space="preserve">
<g>
	<path d="M10.1714,11.9973c-0.1797-0.0723-0.3198-0.1538-0.4199-0.2461H9.7217l-0.1558,0.2461H9.4517l-0.0537-1.3076h0.126
		c0.0596,0.1724,0.1318,0.3311,0.2158,0.4771s0.1797,0.2729,0.2876,0.3809s0.2241,0.1919,0.3481,0.252
		c0.1235,0.0596,0.2534,0.0898,0.3896,0.0898c0.2637,0,0.4585-0.064,0.5845-0.1919s0.189-0.29,0.189-0.4858
		c0-0.1318-0.022-0.2446-0.0659-0.3389c-0.0439-0.0938-0.1069-0.1768-0.189-0.249c-0.082-0.0718-0.1816-0.1367-0.2998-0.1948
		c-0.1177-0.0576-0.251-0.1187-0.3989-0.1826c-0.1357-0.0562-0.2686-0.1172-0.3984-0.1831s-0.2461-0.146-0.3481-0.2397
		C9.7368,9.7292,9.6548,9.6194,9.5928,9.4934S9.4995,9.2166,9.4995,9.0408c0-0.1519,0.0293-0.292,0.0874-0.4199
		c0.0576-0.1279,0.1377-0.2378,0.2397-0.3296s0.2207-0.1631,0.3569-0.2129c0.1357-0.0498,0.2837-0.0747,0.4434-0.0747
		c0.1123,0,0.209,0.0059,0.291,0.0176C11,8.0334,11.0718,8.0496,11.1338,8.0696s0.1182,0.0439,0.168,0.0718
		s0.1011,0.0581,0.1528,0.0898h0.0303l0.1255-0.1797h0.1504l0.0957,1.145h-0.1377c-0.0562-0.1519-0.126-0.2954-0.21-0.4316
		c-0.084-0.1357-0.168-0.2397-0.252-0.3115c-0.0762-0.064-0.1582-0.1191-0.2461-0.165s-0.2158-0.0688-0.3838-0.0688
		c-0.0718,0-0.1436,0.0127-0.2158,0.0386c-0.0718,0.0264-0.1377,0.063-0.1978,0.1113c-0.0601,0.0479-0.1079,0.1069-0.144,0.1768
		s-0.0537,0.1509-0.0537,0.2427c0,0.144,0.0249,0.2612,0.0747,0.3511c0.0503,0.0898,0.1152,0.167,0.1948,0.231
		c0.0801,0.064,0.1709,0.1187,0.2729,0.1646c0.1021,0.0464,0.2051,0.0952,0.3091,0.147c0.1558,0.0801,0.3057,0.1553,0.4497,0.2251
		c0.1436,0.0698,0.2705,0.1509,0.3809,0.2427c0.1099,0.0923,0.1978,0.2002,0.2632,0.3237c0.0664,0.124,0.0996,0.2778,0.0996,0.4619
		c0,0.188-0.0361,0.354-0.1084,0.4976c-0.0713,0.144-0.1675,0.2661-0.2876,0.3662c-0.1201,0.0996-0.2578,0.1758-0.4136,0.2275
		c-0.1562,0.0522-0.3179,0.0781-0.4858,0.0781C10.5493,12.1052,10.3511,12.0691,10.1714,11.9973z"/>
	<path d="M14.5654,12.0452c-0.0898,0.0239-0.1934,0.0361-0.3086,0.0361c-0.0723,0-0.1309-0.0059-0.1748-0.0181
		s-0.0811-0.0278-0.1133-0.0479c-0.0361-0.0239-0.0684-0.0601-0.0957-0.1079c-0.0283-0.0483-0.042-0.1182-0.042-0.21h-0.0361
		c-0.0166,0.0361-0.041,0.0757-0.0752,0.1201c-0.0342,0.0439-0.0781,0.0845-0.1318,0.1226s-0.1201,0.0713-0.1982,0.0991
		s-0.167,0.042-0.2666,0.042c-0.0957,0-0.1846-0.0142-0.2666-0.042s-0.1553-0.0688-0.2188-0.123
		c-0.0645-0.0537-0.1143-0.1221-0.1504-0.2036c-0.0361-0.082-0.0537-0.1772-0.0537-0.2852c0-0.0757,0.0146-0.1548,0.0449-0.2368
		s0.0791-0.1548,0.1465-0.2188c0.0918-0.0801,0.1855-0.1401,0.2793-0.1802s0.2148-0.0815,0.3623-0.126
		c0.1602-0.0439,0.2803-0.0859,0.3604-0.1255c0.0801-0.04,0.1357-0.0884,0.168-0.144l0.0059-0.4917
		c0-0.1201-0.0273-0.2031-0.0811-0.249s-0.1367-0.0688-0.249-0.0688c-0.1162,0-0.2061,0.022-0.2695,0.0659
		c-0.0322,0.02-0.0615,0.0537-0.0869,0.1021c-0.0264,0.0479-0.0449,0.1099-0.0576,0.1855c-0.0234,0.1641-0.1074,0.2461-0.251,0.2461
		c-0.0684,0-0.124-0.021-0.168-0.063s-0.0664-0.0991-0.0664-0.1709c0-0.1001,0.04-0.1899,0.1201-0.27
		c0.0635-0.0679,0.166-0.1289,0.3057-0.1826c0.1396-0.0542,0.2959-0.0811,0.4678-0.0811c0.2598,0,0.4668,0.04,0.6211,0.1201
		c0.1533,0.0796,0.2305,0.2197,0.2305,0.4194c0,0.0479-0.001,0.1309-0.0029,0.249c-0.002,0.1177-0.0039,0.248-0.0059,0.3896
		c-0.002,0.1421-0.0039,0.2832-0.0059,0.4229c-0.002,0.1401-0.0029,0.2559-0.0029,0.3477c0,0.1362,0.0049,0.2339,0.0146,0.2939
		s0.0225,0.104,0.0391,0.1318c0.0322,0.064,0.0879,0.0962,0.168,0.0962c0.0312,0,0.0654-0.0029,0.1016-0.0093
		c0.0361-0.0059,0.0645-0.0127,0.084-0.021l0.0361,0.1201C14.7139,11.9993,14.6553,12.0212,14.5654,12.0452z M13.6504,10.6902
		c-0.0674,0.0317-0.1455,0.0679-0.2334,0.1079c-0.0801,0.0356-0.1523,0.0708-0.2158,0.105
		c-0.0645,0.0337-0.1143,0.0728-0.1504,0.1167s-0.0645,0.0991-0.0869,0.165c-0.0215,0.0659-0.0332,0.1387-0.0332,0.2188
		c0,0.1641,0.0381,0.2759,0.1143,0.3359s0.1602,0.0898,0.252,0.0898c0.1162,0,0.2168-0.0298,0.3027-0.0898
		s0.1455-0.144,0.1768-0.252l0.0186-0.8877C13.7666,10.6282,13.7188,10.658,13.6504,10.6902z"/>
	<path d="M15.9941,9.7214c0.0459-0.0537,0.0947-0.103,0.1465-0.147c0.0479-0.04,0.1113-0.0757,0.1895-0.1079
		c0.0771-0.0317,0.167-0.0479,0.2666-0.0479c0.0557,0,0.1113,0.0088,0.168,0.0269c0.0557,0.0181,0.1035,0.0449,0.1436,0.0811
		c0.0244,0.0239,0.0449,0.0552,0.0635,0.0928c0.0176,0.0381,0.0264,0.0913,0.0264,0.1592c0,0.0718-0.0186,0.1357-0.0566,0.1919
		c-0.0381,0.0557-0.1045,0.084-0.2012,0.084c-0.0801,0-0.1387-0.021-0.1768-0.063s-0.0664-0.0952-0.0869-0.1592
		c-0.0283-0.0796-0.082-0.1196-0.1621-0.1196c-0.0439,0-0.0908,0.0181-0.1406,0.0537c-0.0498,0.0361-0.0986,0.084-0.1465,0.144
		c-0.0488,0.0601-0.0908,0.1299-0.126,0.21c-0.0361,0.0801-0.0586,0.1641-0.0664,0.252c-0.0039,0.0239-0.0068,0.0728-0.0088,0.147
		c-0.002,0.0737-0.0029,0.1445-0.0029,0.2129v0.6416c0,0.0518,0.001,0.0996,0.0029,0.1436s0.0068,0.084,0.0146,0.1201
		c0.0117,0.0518,0.0303,0.0962,0.0537,0.1318c0.0244,0.0361,0.0605,0.064,0.1084,0.084c0.0322,0.0122,0.0664,0.021,0.1016,0.0269
		c0.0361,0.0063,0.0742,0.0112,0.1143,0.0151v0.126h-1.2656v-0.126c0.0322-0.0039,0.0635-0.0098,0.0938-0.0181
		c0.0293-0.0078,0.0547-0.0156,0.0742-0.0239c0.0918-0.0439,0.1504-0.1157,0.1738-0.2158c0.0088-0.0361,0.0137-0.0762,0.0156-0.1201
		s0.0029-0.0918,0.0029-0.1436v-1.2896c0-0.04-0.001-0.0879-0.0029-0.144c-0.002-0.0557-0.0068-0.0977-0.0156-0.1255
		c-0.0195-0.0645-0.0557-0.1123-0.1074-0.144c-0.0645-0.04-0.1484-0.062-0.252-0.0659v-0.126h0.8516
		c0.0234,0,0.0361,0.0117,0.0361,0.0356l-0.0186,0.4502h0.042C15.8994,9.8562,15.9482,9.7756,15.9941,9.7214z"/>
	<path d="M19.3232,12.0452c-0.0898,0.0239-0.1934,0.0361-0.3086,0.0361c-0.0723,0-0.1309-0.0059-0.1748-0.0181
		s-0.0811-0.0278-0.1133-0.0479c-0.0361-0.0239-0.0684-0.0601-0.0957-0.1079c-0.0283-0.0483-0.042-0.1182-0.042-0.21h-0.0361
		c-0.0166,0.0361-0.041,0.0757-0.0752,0.1201c-0.0342,0.0439-0.0781,0.0845-0.1318,0.1226s-0.1201,0.0713-0.1982,0.0991
		s-0.167,0.042-0.2666,0.042c-0.0957,0-0.1846-0.0142-0.2666-0.042s-0.1553-0.0688-0.2188-0.123
		c-0.0645-0.0537-0.1143-0.1221-0.1504-0.2036c-0.0361-0.082-0.0537-0.1772-0.0537-0.2852c0-0.0757,0.0146-0.1548,0.0449-0.2368
		s0.0791-0.1548,0.1465-0.2188c0.0918-0.0801,0.1855-0.1401,0.2793-0.1802s0.2148-0.0815,0.3623-0.126
		c0.1602-0.0439,0.2803-0.0859,0.3604-0.1255c0.0801-0.04,0.1357-0.0884,0.168-0.144l0.0059-0.4917
		c0-0.1201-0.0273-0.2031-0.0811-0.249s-0.1367-0.0688-0.249-0.0688c-0.1162,0-0.2061,0.022-0.2695,0.0659
		c-0.0322,0.02-0.0615,0.0537-0.0869,0.1021c-0.0264,0.0479-0.0449,0.1099-0.0576,0.1855c-0.0234,0.1641-0.1074,0.2461-0.251,0.2461
		c-0.0684,0-0.124-0.021-0.168-0.063s-0.0664-0.0991-0.0664-0.1709c0-0.1001,0.04-0.1899,0.1201-0.27
		c0.0635-0.0679,0.166-0.1289,0.3057-0.1826c0.1396-0.0542,0.2959-0.0811,0.4678-0.0811c0.2598,0,0.4668,0.04,0.6211,0.1201
		c0.1533,0.0796,0.2305,0.2197,0.2305,0.4194c0,0.0479-0.001,0.1309-0.0029,0.249c-0.002,0.1177-0.0039,0.248-0.0059,0.3896
		c-0.002,0.1421-0.0039,0.2832-0.0059,0.4229c-0.002,0.1401-0.0029,0.2559-0.0029,0.3477c0,0.1362,0.0049,0.2339,0.0146,0.2939
		s0.0225,0.104,0.0391,0.1318c0.0322,0.064,0.0879,0.0962,0.168,0.0962c0.0312,0,0.0654-0.0029,0.1016-0.0093
		c0.0361-0.0059,0.0645-0.0127,0.084-0.021L19.5,11.9792C19.4717,11.9993,19.4131,12.0212,19.3232,12.0452z M18.4082,10.6902
		c-0.0674,0.0317-0.1455,0.0679-0.2334,0.1079c-0.0801,0.0356-0.1523,0.0708-0.2158,0.105
		c-0.0645,0.0337-0.1143,0.0728-0.1504,0.1167s-0.0645,0.0991-0.0869,0.165c-0.0215,0.0659-0.0332,0.1387-0.0332,0.2188
		c0,0.1641,0.0381,0.2759,0.1143,0.3359s0.1602,0.0898,0.252,0.0898c0.1162,0,0.2168-0.0298,0.3027-0.0898
		s0.1455-0.144,0.1768-0.252l0.0186-0.8877C18.5244,10.6282,18.4766,10.658,18.4082,10.6902z"/>
	<path d="M22.1973,11.5173c0.002,0.0439,0.0068,0.084,0.0146,0.1201c0.0244,0.1001,0.082,0.1719,0.1738,0.2158
		c0.0205,0.0083,0.0449,0.0161,0.0752,0.0239c0.0303,0.0083,0.0605,0.0142,0.0928,0.0181v0.126h-1.2178v-0.126
		c0.0322-0.0039,0.0635-0.0098,0.0938-0.0181c0.0293-0.0078,0.0547-0.0156,0.0742-0.0239c0.0527-0.0239,0.0889-0.0527,0.1113-0.0869
		s0.0391-0.0771,0.0508-0.1289c0.0078-0.0361,0.0137-0.0762,0.0156-0.1201s0.0029-0.0918,0.0029-0.1436v-1.2954
		c0-0.1401-0.0381-0.2461-0.1143-0.3179c-0.0596-0.0562-0.1562-0.084-0.2881-0.084c-0.1074,0-0.2119,0.0249-0.3115,0.0752
		c-0.0996,0.0498-0.1816,0.1187-0.2461,0.2065c-0.0479,0.064-0.084,0.1431-0.1074,0.2368c-0.0244,0.0942-0.0361,0.187-0.0361,0.2788
		v0.8999c0,0.0518,0.001,0.0996,0.0029,0.1436s0.0068,0.084,0.0146,0.1201c0.0117,0.0518,0.0293,0.0947,0.0508,0.1289
		c0.0225,0.0342,0.0596,0.063,0.1113,0.0869c0.0195,0.0083,0.0449,0.0161,0.0752,0.0239c0.0293,0.0083,0.0605,0.0142,0.0928,0.0181
		v0.126h-1.2178v-0.126c0.0322-0.0039,0.0635-0.0098,0.0938-0.0181c0.0293-0.0078,0.0547-0.0156,0.0742-0.0239
		c0.0918-0.0439,0.1504-0.1157,0.1738-0.2158c0.0088-0.0361,0.0137-0.0762,0.0156-0.1201s0.0029-0.0918,0.0029-0.1436V8.5251
		c0-0.04-0.001-0.0879-0.0029-0.144c-0.002-0.0557-0.0068-0.0977-0.0156-0.126c-0.0195-0.064-0.0557-0.1118-0.1074-0.1436
		c-0.0645-0.04-0.1484-0.062-0.252-0.0659v-0.126h0.8633c0.0244,0,0.0361,0.0117,0.0361,0.0356c0,0.084-0.002,0.1772-0.0059,0.2788
		c-0.0039,0.1021-0.0059,0.2329-0.0059,0.3931v1.2354h0.042c0.0635-0.104,0.1514-0.1938,0.2637-0.27
		c0.1641-0.1157,0.3613-0.1738,0.5938-0.1738c0.1875,0,0.3438,0.0439,0.4678,0.1318c0.1641,0.1201,0.2461,0.2979,0.2461,0.5337
		v1.2896C22.1943,11.4255,22.1953,11.4734,22.1973,11.5173z"/>
	<path d="M12.4238,14.114c0.1621,0.0259,0.3066,0.0728,0.4346,0.1406c0.1279,0.0684,0.2314,0.1592,0.3115,0.2729
		c0.0801,0.1143,0.1201,0.2607,0.1201,0.4409c0,0.208-0.0479,0.3677-0.1436,0.4795c-0.0967,0.1123-0.2139,0.208-0.3545,0.2876
		c-0.0557,0.0322-0.1133,0.0596-0.1738,0.0811c-0.0596,0.0225-0.1455,0.043-0.2578,0.0635v0.0176
		c0.1523,0.0166,0.2979,0.0469,0.4385,0.0928c0.1396,0.0459,0.2637,0.1094,0.3711,0.1895c0.1084,0.0801,0.1943,0.1797,0.2578,0.2998
		c0.0645,0.1201,0.0967,0.2637,0.0967,0.4316s-0.0352,0.3203-0.1055,0.4561s-0.1641,0.2529-0.2822,0.3506
		c-0.1172,0.0977-0.2559,0.1729-0.4131,0.2246c-0.1582,0.0518-0.3252,0.0781-0.501,0.0781h-2.0449v-0.126
		c0.0879-0.0039,0.1602-0.0156,0.2158-0.0361c0.064-0.0195,0.1182-0.0469,0.1621-0.0811c0.0439-0.0332,0.082-0.083,0.1138-0.1465
		c0.0361-0.0723,0.0591-0.1504,0.0688-0.2344c0.0103-0.084,0.0151-0.2139,0.0151-0.3896v-1.9248
		c0-0.0879-0.001-0.1626-0.0029-0.2246s-0.0059-0.1162-0.0122-0.1621c-0.0059-0.0459-0.0146-0.0869-0.0269-0.123
		c-0.0117-0.0356-0.0259-0.0718-0.042-0.1079c-0.0317-0.064-0.0698-0.1128-0.1138-0.147c-0.0439-0.0337-0.0981-0.061-0.1621-0.0806
		c-0.0557-0.0161-0.1279-0.0283-0.2158-0.0361v-0.126h1.7568C12.0986,14.075,12.2617,14.0881,12.4238,14.114z M11.9346,15.8137
		c0.3125,0,0.5225-0.0713,0.6299-0.2158c0.0645-0.084,0.1084-0.1846,0.1318-0.3027c0.0244-0.1177,0.0361-0.2266,0.0361-0.3267
		c0-0.1318-0.0186-0.2417-0.0566-0.3301c-0.0381-0.0879-0.0928-0.1577-0.1621-0.2095c-0.0703-0.0522-0.1533-0.0894-0.249-0.1113
		s-0.2021-0.0327-0.3174-0.0327H11.479c-0.0317,0-0.0581,0.001-0.0776,0.0029c-0.02,0.002-0.0342,0.0107-0.042,0.0269
		c-0.0122,0.0161-0.0181,0.0479-0.0181,0.0962v1.4028H11.9346z M11.3413,17.1448c0,0.1406,0.0068,0.2539,0.021,0.3418
		c0.0137,0.0889,0.0469,0.1582,0.0986,0.21c0.0439,0.0439,0.104,0.0742,0.1802,0.0908c0.0757,0.0156,0.1655,0.0234,0.27,0.0234
		h0.1494c0.1406,0,0.2666-0.0176,0.3809-0.0537s0.209-0.0938,0.2852-0.1738c0.1201-0.1318,0.1797-0.3564,0.1797-0.6719
		c0-0.1279-0.0156-0.2539-0.0479-0.3779s-0.0898-0.2295-0.1738-0.3174c-0.0723-0.0723-0.1729-0.1211-0.3027-0.1475
		c-0.1299-0.0254-0.2715-0.0391-0.4229-0.0391h-0.6177V17.1448z"/>
	<path d="M15.8057,17.8704c-0.1768,0.1406-0.4004,0.21-0.6719,0.21c-0.1758,0-0.3311-0.0254-0.4648-0.0771
		c-0.1338-0.0527-0.249-0.1221-0.3447-0.21c-0.1484-0.1318-0.2559-0.291-0.3242-0.4775c-0.0674-0.1855-0.1016-0.374-0.1016-0.5664
		c0-0.1914,0.0342-0.3691,0.1016-0.5332c0.0684-0.1641,0.1592-0.3047,0.2734-0.4229c0.1133-0.1182,0.2432-0.21,0.3896-0.2759
		c0.1455-0.0659,0.2988-0.0991,0.459-0.0991c0.1875,0,0.3486,0.0308,0.4824,0.0928s0.2422,0.1392,0.3262,0.2314
		c0.084,0.0918,0.1465,0.1943,0.1865,0.3086c0.04,0.1133,0.0596,0.2207,0.0596,0.3203c0,0.0566-0.001,0.1113-0.0029,0.165
		s-0.0068,0.0967-0.0146,0.1289h-1.7031v0.084c0,0.084,0.0039,0.1689,0.0117,0.2549s0.0225,0.1689,0.042,0.249
		c0.0205,0.0801,0.0459,0.1553,0.0781,0.2246c0.0322,0.0703,0.0742,0.1309,0.126,0.1836c0.0557,0.0596,0.125,0.1074,0.207,0.1436
		s0.1807,0.0537,0.2969,0.0537c0.1201,0,0.2246-0.0186,0.3145-0.0566s0.168-0.0869,0.2344-0.1475
		c0.0654-0.0596,0.1201-0.124,0.1641-0.1943c0.0449-0.0703,0.0801-0.1367,0.1084-0.2012l0.1504,0.0723
		C16.1094,17.551,15.9814,17.7307,15.8057,17.8704z M14.5703,16.0032c-0.0527,0.1172-0.0859,0.2764-0.1025,0.4766h1.0254
		c0.0605,0,0.1045-0.0186,0.1318-0.0537c0.0283-0.0361,0.042-0.1064,0.042-0.21c0-0.1162-0.0098-0.2119-0.0293-0.2881
		c-0.0205-0.0762-0.0566-0.1416-0.1084-0.1982c-0.0439-0.0479-0.0967-0.0835-0.1592-0.1074
		c-0.0615-0.0244-0.1426-0.0361-0.2422-0.0361c-0.0645,0-0.1289,0.0098-0.1953,0.0298s-0.127,0.0562-0.1826,0.1079
		C14.6816,15.7922,14.6221,15.885,14.5703,16.0032z"/>
	<path d="M17.5762,15.616c-0.0684,0.02-0.1279,0.0503-0.1797,0.0898c-0.2207,0.1724-0.3301,0.5181-0.3301,1.0376
		c0,0.2637,0.0303,0.4727,0.0898,0.627c0.0596,0.1533,0.1436,0.2725,0.252,0.3564c0.1074,0.084,0.2354,0.126,0.3838,0.126
		c0.1318,0,0.2441-0.0146,0.3359-0.0449s0.1689-0.0713,0.2305-0.123c0.0625-0.0518,0.1123-0.1113,0.1504-0.1768
		c0.0381-0.0664,0.0684-0.1328,0.0928-0.2012l0.168,0.0664c-0.0684,0.2197-0.1855,0.3926-0.3506,0.5186
		c-0.166,0.126-0.3936,0.1885-0.6807,0.1885c-0.1523,0-0.2891-0.0215-0.4111-0.0654s-0.2354-0.1064-0.3389-0.1865
		c-0.1523-0.1152-0.2695-0.2656-0.3535-0.4492s-0.126-0.3955-0.126-0.6357c0-0.2041,0.0352-0.3877,0.1045-0.5518
		c0.0703-0.1641,0.1631-0.3027,0.2793-0.417c0.1162-0.1138,0.251-0.2017,0.4043-0.2637c0.1543-0.062,0.3154-0.0928,0.4834-0.0928
		c0.124,0,0.2314,0.0088,0.3232,0.0269s0.1699,0.041,0.2344,0.0688c0.0635,0.0283,0.1162,0.0591,0.1582,0.0933
		c0.042,0.0337,0.0791,0.0669,0.1113,0.0986c0.0439,0.0444,0.0752,0.0894,0.0928,0.1353c0.0186,0.0459,0.0273,0.0908,0.0273,0.1348
		c0,0.0996-0.0244,0.1699-0.0723,0.21s-0.1055,0.0596-0.1738,0.0596c-0.0918,0-0.1592-0.0303-0.2012-0.0928
		c-0.042-0.0615-0.0762-0.1406-0.1045-0.2363c-0.0322-0.1162-0.0762-0.2002-0.1318-0.2524
		c-0.0566-0.0518-0.1445-0.0776-0.2637-0.0776C17.7119,15.5862,17.6436,15.5959,17.5762,15.616z"/>
	<path d="M20.9287,16.6418c0.1484,0.084,0.2402,0.2012,0.2764,0.3535c0.0322,0.1475,0.0684,0.2881,0.1104,0.4199
		s0.0918,0.2275,0.1475,0.2881c0.0361,0.04,0.0811,0.0781,0.1348,0.1162s0.1387,0.0635,0.2549,0.0752v0.126h-0.8633
		c-0.0244-0.0195-0.0439-0.0469-0.0605-0.0811c-0.0156-0.0342-0.0303-0.0801-0.0449-0.1377
		c-0.0137-0.0576-0.0293-0.1299-0.0479-0.2158c-0.0176-0.0859-0.043-0.1895-0.0752-0.3086
		c-0.0195-0.0762-0.042-0.1494-0.0654-0.2197c-0.0244-0.0693-0.0537-0.1338-0.0898-0.1914s-0.0801-0.1074-0.1318-0.1475
		c-0.0527-0.0391-0.1201-0.0693-0.2041-0.0898l-0.3057,0.2578v0.4863c0,0.0518,0.001,0.0996,0.0029,0.1436
		s0.0068,0.084,0.0146,0.1201c0.0244,0.0996,0.082,0.1719,0.1738,0.2158c0.0518,0.0205,0.1123,0.0342,0.1797,0.042v0.126h-1.2412
		v-0.126c0.0322-0.0039,0.0635-0.0098,0.0938-0.0176c0.0293-0.0088,0.0547-0.0166,0.0742-0.0244
		c0.0918-0.0439,0.1504-0.1162,0.1738-0.2158c0.0088-0.0361,0.0137-0.0762,0.0156-0.1201s0.0029-0.0918,0.0029-0.1436v-2.8486
		c0-0.04-0.001-0.0879-0.0029-0.144c-0.002-0.0557-0.0068-0.0977-0.0156-0.126c-0.0195-0.064-0.0557-0.1118-0.1074-0.1436
		c-0.0645-0.04-0.1484-0.062-0.252-0.0659v-0.126h0.8633c0.0244,0,0.0361,0.0117,0.0361,0.0356
		c-0.0039,0.0723-0.0068,0.1528-0.0088,0.2432c-0.002,0.0898-0.0029,0.1987-0.0029,0.3267v2.1523l0.5391-0.4609
		c0.0928-0.0762,0.1641-0.1455,0.2158-0.207c0.0527-0.0625,0.0781-0.127,0.0781-0.1953c0-0.0479-0.0117-0.084-0.0361-0.1079
		c-0.0234-0.0239-0.0518-0.0439-0.084-0.0596c-0.0479-0.02-0.1211-0.0342-0.2217-0.042v-0.126h1.2412v0.126
		c-0.1035,0.02-0.2256,0.0718-0.3652,0.1558c-0.0322,0.0195-0.0898,0.0635-0.1738,0.1318s-0.21,0.1719-0.3779,0.3115l-0.3418,0.2881
		C20.6172,16.5081,20.7812,16.5579,20.9287,16.6418z"/>
	<path d="M11.9961,20.2366c-0.0635,0.0205-0.1182,0.0469-0.1621,0.0811s-0.0815,0.083-0.1138,0.1475
		c-0.0356,0.0713-0.0591,0.1494-0.0688,0.2334s-0.0151,0.2139-0.0151,0.3896v1.9189c0,0.1758,0.0054,0.3057,0.0151,0.3896
		s0.0332,0.1621,0.0688,0.2344c0.0322,0.0635,0.0698,0.1133,0.1138,0.1465c0.0439,0.0342,0.0986,0.0615,0.1621,0.0811
		c0.0518,0.0205,0.124,0.0322,0.2158,0.0361v0.126h-1.7627v-0.126c0.0439-0.0039,0.0879-0.0088,0.1318-0.0146
		s0.0801-0.0137,0.1079-0.0215c0.064-0.0195,0.1177-0.0469,0.1616-0.0811c0.0439-0.0332,0.082-0.083,0.1143-0.1465
		c0.0356-0.0723,0.0586-0.1504,0.0688-0.2344c0.0098-0.084,0.0151-0.2139,0.0151-0.3896v-2.4043h-0.0361l-1.2651,3.4424H9.5073
		l-1.2832-3.4424h-0.042v2.5303c0,0.1602,0.0093,0.2773,0.0269,0.3506c0.0181,0.0742,0.0454,0.1357,0.0811,0.1836
		c0.0361,0.0518,0.0732,0.0908,0.1113,0.1162c0.0376,0.0264,0.0825,0.0479,0.1348,0.0635c0.04,0.0117,0.0767,0.0205,0.1108,0.0273
		c0.0342,0.0059,0.0791,0.0127,0.1348,0.0205v0.126H7.3066v-0.126c0.0439-0.0039,0.085-0.0088,0.123-0.0146
		s0.0728-0.0137,0.105-0.0215c0.0557-0.0156,0.103-0.0361,0.1406-0.0596c0.0381-0.0244,0.0791-0.0625,0.123-0.1143
		s0.0781-0.1172,0.1021-0.1943c0.0239-0.0781,0.0361-0.1973,0.0361-0.3574v-2.0449c0-0.1758-0.0054-0.3057-0.0151-0.3896
		c-0.0103-0.084-0.0332-0.1621-0.0688-0.2334c-0.0322-0.0645-0.0703-0.1133-0.1143-0.1475s-0.0977-0.0605-0.1616-0.0811
		c-0.0278-0.0078-0.0688-0.0146-0.123-0.0205c-0.0537-0.0059-0.103-0.0107-0.147-0.0156v-0.126h1.3491l1.1274,3.0703h0.0361
		l1.1455-3.0703h1.2471v0.126C12.1201,20.2092,12.0479,20.2209,11.9961,20.2366z"/>
	<path d="M14.6826,24.0452c-0.0898,0.0234-0.1934,0.0352-0.3086,0.0352c-0.0723,0-0.1309-0.0059-0.1748-0.0176
		s-0.0811-0.0283-0.1133-0.0479c-0.0361-0.0244-0.0684-0.0605-0.0957-0.1084c-0.0283-0.0479-0.042-0.1172-0.042-0.21h-0.0361
		c-0.0166,0.0361-0.041,0.0762-0.0752,0.1201s-0.0781,0.085-0.1318,0.123s-0.1201,0.0713-0.1982,0.0986
		c-0.0781,0.0283-0.167,0.042-0.2666,0.042c-0.0957,0-0.1846-0.0137-0.2666-0.042c-0.082-0.0273-0.1553-0.0684-0.2188-0.1221
		c-0.0645-0.0547-0.1143-0.1221-0.1504-0.2041s-0.0537-0.1768-0.0537-0.2852c0-0.0762,0.0146-0.1553,0.0449-0.2363
		c0.0303-0.082,0.0791-0.1553,0.1465-0.2197c0.0918-0.0791,0.1855-0.1396,0.2793-0.1797s0.2148-0.082,0.3623-0.126
		c0.1602-0.0439,0.2803-0.0859,0.3604-0.126s0.1357-0.0879,0.168-0.1436l0.0059-0.4922c0-0.1191-0.0273-0.2021-0.0811-0.248
		c-0.0537-0.0469-0.1367-0.0693-0.249-0.0693c-0.1162,0-0.2061,0.0215-0.2695,0.0654c-0.0322,0.0205-0.0615,0.0547-0.0869,0.1025
		c-0.0264,0.0479-0.0449,0.1094-0.0576,0.1855c-0.0234,0.1641-0.1074,0.2461-0.251,0.2461c-0.0684,0-0.124-0.0215-0.168-0.0635
		c-0.0439-0.041-0.0664-0.0986-0.0664-0.1709c0-0.0996,0.04-0.1895,0.1201-0.2695c0.0635-0.0674,0.166-0.1289,0.3057-0.1826
		s0.2959-0.0811,0.4678-0.0811c0.2598,0,0.4668,0.04,0.6211,0.1201c0.1533,0.0801,0.2305,0.2197,0.2305,0.4199
		c0,0.0479-0.001,0.1309-0.0029,0.248c-0.002,0.1182-0.0039,0.248-0.0059,0.3906c-0.002,0.1416-0.0039,0.2822-0.0059,0.4229
		c-0.002,0.1396-0.0029,0.2559-0.0029,0.3477c0,0.1357,0.0049,0.2334,0.0146,0.2939c0.0098,0.0596,0.0225,0.1035,0.0391,0.1318
		c0.0322,0.0635,0.0879,0.0957,0.168,0.0957c0.0312,0,0.0654-0.0029,0.1016-0.0088s0.0645-0.0137,0.084-0.0215l0.0361,0.1201
		C14.8311,23.9983,14.7725,24.0208,14.6826,24.0452z M13.7676,22.6897c-0.0674,0.0322-0.1455,0.0674-0.2334,0.1074
		c-0.0801,0.0361-0.1523,0.0713-0.2158,0.1055c-0.0645,0.0342-0.1143,0.0732-0.1504,0.1172s-0.0645,0.0986-0.0869,0.1641
		c-0.0215,0.0664-0.0332,0.1396-0.0332,0.2197c0,0.1631,0.0381,0.2754,0.1143,0.335c0.0762,0.0605,0.1602,0.0908,0.252,0.0908
		c0.1162,0,0.2168-0.0303,0.3027-0.0908c0.0859-0.0596,0.1455-0.1436,0.1768-0.251l0.0186-0.8877
		C13.8838,22.6272,13.8359,22.6575,13.7676,22.6897z"/>
	<path d="M16.3779,24.0208c-0.1162,0.04-0.2314,0.0596-0.3477,0.0596s-0.2148-0.0117-0.2969-0.0352
		c-0.082-0.0244-0.1572-0.0664-0.2246-0.126c-0.0566-0.0488-0.0947-0.1055-0.1143-0.1709
		c-0.0205-0.0664-0.0303-0.1553-0.0303-0.2676v-1.7988l-0.4375-0.0176v-0.1201c0.0957-0.0156,0.1816-0.0449,0.2578-0.0869
		s0.1465-0.1025,0.2129-0.1797c0.0664-0.0781,0.127-0.1768,0.1826-0.2969c0.0566-0.1201,0.1104-0.2666,0.1621-0.4385h0.1318v0.9355
		h0.666v0.21h-0.666v1.793c0,0.1084,0.0244,0.1924,0.0723,0.252c0.0479,0.0605,0.1318,0.0898,0.252,0.0898
		c0.0801,0,0.1553-0.0107,0.2275-0.0322c0.0723-0.0225,0.1357-0.0596,0.1924-0.1113l0.0713,0.1016
		C16.5977,23.9006,16.4941,23.9807,16.3779,24.0208z"/>
	<path d="M19.3623,23.5168c0.002,0.0439,0.0068,0.084,0.0146,0.1201c0.0244,0.0996,0.082,0.1719,0.1738,0.2158
		c0.0205,0.0078,0.0449,0.0156,0.0752,0.0244c0.0303,0.0078,0.0605,0.0137,0.0928,0.0176v0.126H18.501v-0.126
		c0.0322-0.0039,0.0635-0.0098,0.0938-0.0176c0.0293-0.0088,0.0547-0.0166,0.0742-0.0244c0.0527-0.0234,0.0898-0.0527,0.1113-0.0869
		c0.0225-0.0342,0.0391-0.0771,0.0508-0.1289c0.0078-0.0361,0.0137-0.0762,0.0156-0.1201s0.0029-0.0918,0.0029-0.1436v-1.2959
		c0-0.1396-0.0381-0.2451-0.1143-0.3174c-0.0596-0.0557-0.1562-0.084-0.2881-0.084c-0.1074,0-0.2119,0.0254-0.3115,0.0752
		s-0.1816,0.1191-0.2461,0.207c-0.0479,0.0635-0.084,0.1426-0.1074,0.2363c-0.0244,0.0938-0.0361,0.1875-0.0361,0.2793v0.8994
		c0,0.0518,0.001,0.0996,0.0029,0.1436s0.0068,0.084,0.0146,0.1201c0.0117,0.0518,0.0293,0.0947,0.0508,0.1289
		c0.0225,0.0342,0.0596,0.0635,0.1113,0.0869c0.0195,0.0078,0.0449,0.0156,0.0752,0.0244c0.0293,0.0078,0.0605,0.0137,0.0928,0.0176
		v0.126H16.876v-0.126c0.0322-0.0039,0.0635-0.0098,0.0938-0.0176c0.0293-0.0088,0.0547-0.0166,0.0742-0.0244
		c0.0918-0.0439,0.1504-0.1162,0.1738-0.2158c0.0088-0.0361,0.0137-0.0762,0.0156-0.1201s0.0029-0.0918,0.0029-0.1436v-2.8486
		c0-0.04-0.001-0.0879-0.0029-0.1436c-0.002-0.0566-0.0068-0.0986-0.0156-0.126c-0.0195-0.0645-0.0557-0.1123-0.1074-0.1445
		c-0.0645-0.04-0.1484-0.0615-0.252-0.0654v-0.126h0.8633c0.0244,0,0.0361,0.0117,0.0361,0.0361c0,0.084-0.002,0.1768-0.0059,0.2783
		c-0.0039,0.1025-0.0059,0.2334-0.0059,0.3926v1.2354h0.042c0.0635-0.1035,0.1514-0.1934,0.2637-0.2695
		c0.1641-0.1162,0.3613-0.1738,0.5938-0.1738c0.1875,0,0.3438,0.0439,0.4678,0.1318c0.1641,0.1201,0.2461,0.2979,0.2461,0.5342
		v1.2891C19.3594,23.425,19.3604,23.4729,19.3623,23.5168z"/>
	<path d="M21.9219,23.8704c-0.1768,0.1406-0.4004,0.21-0.6719,0.21c-0.1758,0-0.3311-0.0254-0.4648-0.0771
		c-0.1338-0.0527-0.249-0.1221-0.3447-0.21c-0.1484-0.1318-0.2559-0.291-0.3242-0.4775c-0.0674-0.1855-0.1016-0.374-0.1016-0.5664
		c0-0.1914,0.0342-0.3691,0.1016-0.5332c0.0684-0.1641,0.1592-0.3047,0.2734-0.4229c0.1133-0.1182,0.2432-0.21,0.3896-0.2764
		c0.1455-0.0654,0.2988-0.0986,0.458-0.0986c0.1885,0,0.3496,0.0312,0.4834,0.0928c0.1338,0.0625,0.2432,0.1387,0.3262,0.2314
		c0.084,0.0918,0.1465,0.1943,0.1865,0.3086c0.04,0.1133,0.0596,0.2207,0.0596,0.3203c0,0.0566-0.001,0.1113-0.0029,0.165
		s-0.0068,0.0967-0.0146,0.1289h-1.7031v0.084c0,0.084,0.0039,0.1689,0.0117,0.2549s0.0225,0.1689,0.042,0.249
		c0.0205,0.0801,0.0459,0.1553,0.0781,0.2246c0.0322,0.0703,0.0742,0.1309,0.126,0.1836c0.0557,0.0596,0.125,0.1074,0.207,0.1436
		s0.1807,0.0537,0.2969,0.0537c0.1201,0,0.2246-0.0186,0.3145-0.0566s0.168-0.0869,0.2344-0.1475
		c0.0654-0.0596,0.1201-0.124,0.1641-0.1943s0.0801-0.1367,0.1084-0.2012l0.1504,0.0723
		C22.2256,23.551,22.0977,23.7307,21.9219,23.8704z M20.6865,22.0032c-0.0527,0.1172-0.0859,0.2764-0.1025,0.4766h1.0254
		c0.0605,0,0.1045-0.0186,0.1318-0.0537c0.0283-0.0361,0.042-0.1064,0.042-0.21c0-0.1162-0.0098-0.2119-0.0293-0.2881
		c-0.0205-0.0762-0.0566-0.1416-0.1084-0.1982c-0.0439-0.0479-0.0967-0.084-0.1592-0.1074
		c-0.0615-0.0244-0.1426-0.0361-0.2422-0.0361c-0.0645,0-0.1289,0.0098-0.1953,0.0303c-0.0654,0.0195-0.127,0.0557-0.1826,0.1074
		C20.7979,21.7922,20.7383,21.885,20.6865,22.0032z"/>
	<path d="M23.6895,21.7209c0.0459-0.0537,0.0947-0.1025,0.1465-0.1465c0.0479-0.04,0.1113-0.0762,0.1895-0.1084
		c0.0771-0.0322,0.167-0.0479,0.2666-0.0479c0.0557,0,0.1113,0.0088,0.168,0.0273c0.0557,0.0176,0.1035,0.0449,0.1436,0.0811
		c0.0244,0.0234,0.0449,0.0547,0.0635,0.0928c0.0176,0.0381,0.0264,0.0908,0.0264,0.1582c0,0.0723-0.0186,0.1367-0.0566,0.1924
		s-0.1045,0.084-0.2012,0.084c-0.0801,0-0.1387-0.0215-0.1768-0.0635s-0.0664-0.0947-0.0869-0.1582
		c-0.0283-0.0801-0.082-0.1201-0.1621-0.1201c-0.0439,0-0.0908,0.0176-0.1406,0.0537s-0.0986,0.084-0.1465,0.1436
		c-0.0488,0.0605-0.0908,0.1309-0.126,0.21c-0.0361,0.0801-0.0586,0.1641-0.0664,0.252c-0.0039,0.0244-0.0068,0.0732-0.0088,0.1475
		s-0.0029,0.1445-0.0029,0.2129v0.6416c0,0.0518,0.001,0.0996,0.0029,0.1436s0.0068,0.084,0.0146,0.1201
		c0.0117,0.0518,0.0303,0.0957,0.0537,0.1318c0.0244,0.0361,0.0605,0.0645,0.1084,0.084c0.0322,0.0117,0.0664,0.0215,0.1016,0.0273
		c0.0361,0.0059,0.0742,0.0107,0.1143,0.0146v0.126h-1.2656v-0.126c0.0322-0.0039,0.0635-0.0098,0.0938-0.0176
		c0.0293-0.0088,0.0547-0.0166,0.0742-0.0244c0.0918-0.0439,0.1504-0.1162,0.1738-0.2158c0.0088-0.0361,0.0137-0.0762,0.0156-0.1201
		s0.0029-0.0918,0.0029-0.1436v-1.2891c0-0.04-0.001-0.0879-0.0029-0.1445c-0.002-0.0557-0.0068-0.0977-0.0156-0.126
		c-0.0195-0.0635-0.0557-0.1113-0.1074-0.1436c-0.0645-0.04-0.1484-0.0625-0.252-0.0664v-0.126h0.8516
		c0.0234,0,0.0361,0.0127,0.0361,0.0361L23.5,21.9641h0.042C23.5947,21.8557,23.6436,21.7747,23.6895,21.7209z"/>
</g>
</svg>
